<?xml version="1.0" encoding="UTF-8" standalone="no"?>
<!-- Created with Inkscape (http://www.inkscape.org/) -->

<svg
   xmlns:dc="http://purl.org/dc/elements/1.1/"
   xmlns:cc="http://creativecommons.org/ns#"
   xmlns:rdf="http://www.w3.org/1999/02/22-rdf-syntax-ns#"
   xmlns:svg="http://www.w3.org/2000/svg"
   xmlns="http://www.w3.org/2000/svg" xml:lang="en"
   xmlns:sodipodi="http://sodipodi.sourceforge.net/DTD/sodipodi-0.dtd"
   xmlns:inkscape="http://www.inkscape.org/namespaces/inkscape"
   width="400"
   height="400"
   id="svg2"
   version="1.1"
   inkscape:version="0.48.4 r"
   sodipodi:docname="New document 1">
  <defs
     id="defs4" />
  <sodipodi:namedview
     id="base"
     pagecolor="#ffffff"
     bordercolor="#666666"
     borderopacity="1.0"
     inkscape:pageopacity="0.0"
     inkscape:pageshadow="2"
     inkscape:zoom="1"
     inkscape:cx="375"
     inkscape:cy="173.33333"
     inkscape:document-units="px"
     inkscape:current-layer="layer1"
     showgrid="false"
     borderlayer="true"
     inkscape:window-width="1280"
     inkscape:window-height="949"
     inkscape:window-x="-9"
     inkscape:window-y="-9"
     inkscape:window-maximized="1" />
  <metadata
     id="metadata7">
    <rdf:RDF>
      <cc:Work
         rdf:about="">
        <dc:format>image/svg+xml</dc:format>
        <dc:type
           rdf:resource="http://purl.org/dc/dcmitype/StillImage" />
        <dc:title></dc:title>
      </cc:Work>
    </rdf:RDF>
  </metadata>
  <g
     inkscape:label="Layer 1"
     inkscape:groupmode="layer"
     id="layer1"
     transform="translate(0,-652.36218)">
    <path
       style="fill:none;stroke:#000000;stroke-width:1px;stroke-linecap:butt;stroke-linejoin:miter;stroke-opacity:1"
       d="m 139.33333,931.02884 c 0,-7.33333 0,-14.66667 0,-22 M 128,960.36218 c -0.81345,-1.99734 2.45121,-3.27719 2.60367,-4.61603 0.91598,-0.5427 0.96752,-2.26768 2.39117,-2.63331 0.93359,-1.17386 1.89386,-2.41161 2.42306,-3.8759 0.43702,-1.58103 0.86419,-3.18086 1.23831,-4.76729 0.25011,-2.72727 -0.52309,-5.61998 0.68152,-8.20429 0.4211,-1.92214 1.22342,-4.31069 2.12248,-5.67919 l -0.12688,-0.22398"
       id="path3000"
       inkscape:connector-curvature="0" />
    <path
       style="fill:none;stroke:#000000;stroke-width:1px;stroke-linecap:butt;stroke-linejoin:miter;stroke-opacity:1"
       d="M 214,140.66667 C 206.0097,140.75384 200.26046,136.92713 195.33333,132 194.53927,131.20593 193.09927,131.76594 192,130.66667"
       id="path3026"
       inkscape:connector-curvature="0"
       transform="translate(0,652.36218)" />
    <flowRoot
       xml:space="preserve"
       id="flowRoot3056"
       style="fill:black;stroke:none;stroke-opacity:1;stroke-width:1px;stroke-linejoin:miter;stroke-linecap:butt;fill-opacity:1;font-family:Sans;font-style:normal;font-weight:normal;font-size:14px;line-height:125%;letter-spacing:0px;word-spacing:0px;-inkscape-font-specification:Sans;font-stretch:normal;font-variant:normal;text-anchor:start;text-align:start;writing-mode:lr"><flowRegion
         id="flowRegion3058"><rect
           id="rect3060"
           width="36.666668"
           height="30.666666"
           x="354"
           y="82.666664" /></flowRegion><flowPara
         id="flowPara3062"></flowPara></flowRoot>    <text
       xml:space="preserve"
       style="font-size:36px;font-style:normal;font-variant:normal;font-weight:normal;font-stretch:normal;text-align:start;line-height:125%;letter-spacing:0px;word-spacing:0px;writing-mode:lr-tb;text-anchor:start;fill:#000000;fill-opacity:1;stroke:none;font-family:Sans;-inkscape-font-specification:Sans"
       x="352"
       y="105.33333"
       id="text3064"
       sodipodi:linespacing="125%"
       transform="translate(0,652.36218)"><tspan
         sodipodi:role="line"
         id="tspan3066"
         x="352"
         y="105.33333" /></text>
    <text
       xml:space="preserve"
       style="font-size:36px;font-style:normal;font-variant:normal;font-weight:normal;font-stretch:normal;text-align:start;line-height:125%;letter-spacing:0px;word-spacing:0px;writing-mode:lr-tb;text-anchor:start;fill:#000000;fill-opacity:1;stroke:none;font-family:Sans;-inkscape-font-specification:Sans"
       x="347.33334"
       y="100.66667"
       id="text3068"
       sodipodi:linespacing="125%"
       transform="translate(0,652.36218)"><tspan
         sodipodi:role="line"
         id="tspan3070"
         x="347.33334"
         y="100.66667">x</tspan></text>
    <text
       xml:space="preserve"
       style="font-size:36px;font-style:normal;font-variant:normal;font-weight:normal;font-stretch:normal;text-align:start;line-height:125%;letter-spacing:0px;word-spacing:0px;writing-mode:lr-tb;text-anchor:start;fill:#000000;fill-opacity:1;stroke:none;font-family:Sans;-inkscape-font-specification:Sans"
       x="338"
       y="366.66666"
       id="text3072"
       sodipodi:linespacing="125%"
       transform="translate(0,652.36218)"><tspan
         sodipodi:role="line"
         id="tspan3074"
         x="338"
         y="366.66666">y</tspan></text>
    <text
       xml:space="preserve"
       style="font-size:36px;font-style:normal;font-variant:normal;font-weight:normal;font-stretch:normal;text-align:start;line-height:125%;letter-spacing:0px;word-spacing:0px;writing-mode:lr-tb;text-anchor:start;fill:#000000;fill-opacity:1;stroke:none;font-family:Sans;-inkscape-font-specification:Sans"
       x="54"
       y="376"
       id="text3076"
       sodipodi:linespacing="125%"
       transform="translate(0,652.36218)"><tspan
         sodipodi:role="line"
         id="tspan3078"
         x="54"
         y="376">z</tspan></text>
    <path
       id="path3094"
       style="fill:none;stroke:#000000;stroke-width:1px;stroke-linecap:butt;stroke-linejoin:miter;stroke-opacity:1"
       d="m 12.666667,772.36218 c -5.1988309,8.50457 -6.8220868,18.51435 -9.3333337,28 M 95.333333,681.02885 c -8.454709,-7.90012 -20.226355,-11.78605 -24,-19.33334 m 117.999997,222 c 5.52361,-2.48737 9.18341,-7.51279 13.05756,-11.92474 1.01963,-4.92255 3.63329,-9.81724 9.17603,-10.43479 1.90105,-0.34326 3.84318,-0.29301 5.76641,-0.30713 m -100,-12.66667 c 8.53605,-3.53511 18.07739,-3.12417 27.15016,-3.06901 6.09665,0.0936 12.13096,1.02924 18.10793,2.09009 3.79624,0.17112 7.69949,-0.90621 11.40858,0.31225 m 28,-39.33333 c -2.81784,10.32933 -10.00839,20.00975 -19.33333,25.33333 M 146,893.02885 c 2.79937,-3.33554 3.23902,0.61473 0,0 4.16832,-5.79449 11.48235,-6.95746 18.17981,-6.59959 5.79675,-0.95586 10.94229,0.72069 16.48686,1.26625 m 12,26 c -0.81823,-6.37105 1.82024,-12.60512 1.53301,-18.94674 -1.29333,-1.63819 -1.53056,-3.69573 -1.53301,-5.71992 m -66,8 c 2.46815,2.00727 5.51664,1.33277 7.65347,3.38923 1.76821,-0.15688 4.92426,2.48502 4.03566,2.88102 1.20281,0.52081 1.53455,3.29056 1.56087,3.47975 L 140,906.36218 M 26.666667,867.02885 c -0.578185,7.89571 1.712235,18.01334 10.148588,20.81539 6.879125,1.92069 15.724892,2.81118 20.861622,-3.21982 6.917351,-4.73509 7.12123,-14.1175 5.406057,-21.51259 -0.263045,-2.68569 -0.442264,-5.38313 -0.416267,-8.08298 M 100,821.69552 c 1.67102,8.03113 4.40173,15.84477 4.55437,24.12473 0.94372,7.55948 -1.24345,17.37373 -8.885811,20.59182 -7.272845,0.38267 -15.283197,2.79473 -22.150516,-0.32569 -5.14104,-3.50664 -8.701389,-9.28577 -10.425232,-15.2078 -0.276175,-1.26358 -0.421684,-2.55615 -0.426144,-3.84973 m 0.666666,8.66666 c 1.204045,-8.49001 -5.618816,-16.20059 -14.007951,-16.72672 -5.869593,-1.5768 -14.359803,-2.31649 -17.417847,4.26607 -3.535378,7.30652 -5.300197,15.34175 -4.848436,23.44633 -0.293285,8.63458 -0.308872,17.27576 -0.586411,25.91076 4.425555,6.30027 1.470079,14.82502 6.193979,21.10356 m 99.213483,13.16473 c -1.18707,-13.47741 -2.29081,-27.40535 -8.73366,-39.59534 -2.68503,-6.56009 -9.3489,-11.04553 -10.08896,-18.41967 -0.74906,-8.82216 -1.43876,-17.699 -3.94,-26.25035 -1.53447,-5.86275 -3.39691,-11.63192 -5.07244,-17.45447 -7.120347,-6.51496 -17.453235,-4.90915 -26.215942,-6.7894 -7.006823,-0.75886 -15.316466,4.71883 -14.187212,12.42471 -0.603277,10.1583 0.07507,20.37428 -0.145834,30.51905 1.229156,7.25507 5.659643,13.70478 5.738055,21.20288 1.467985,7.48988 4.747078,14.80184 4.035931,22.58026 2.005162,7.82833 4.170696,15.78104 3.279475,23.93208 0.0071,7.35814 1.92328,14.90899 6.725877,20.62419 1.004211,1.80999 1.857322,3.74062 3.258572,5.29336 M 304,1020.3622 c 9.67492,5.9151 24.73227,-6.3002 22.73282,-12.6138 -0.094,-1.4821 -0.58727,-3.3355 -2.06615,-4.0529 m -218,32 c 7.69017,-1.2872 16.55687,-0.9892 20,-9.3333 M 289.33333,737.69551 c 8.26427,9.37926 20.39047,4.17142 31.33334,3.33334 4.76124,-2.54147 11.0719,-2.99687 14.66666,-7.33334 M 60.666667,694.36222 c 13.92012,-8.89369 30.236615,-15.48843 45.714823,-7.98664 28.67724,5.8344 48.48801,32.54795 78.48878,34.2449 28.89119,4.44711 56.50385,15.47964 85.94425,16.63713 17.50468,2.54885 34.37339,-3.28116 50.08349,-10.28486 16.96374,-11.49203 19.07922,10.13683 20.33109,21.83734 -4.33368,20.04084 -26.72532,27.21374 -42.67147,36.09922 -17.63169,6.6191 -34.94616,16.39906 -54.55825,12.7218 -10.12106,4.04077 -36.4701,-13.00874 -28.56221,6.66601 5.34825,31.97332 33.71026,52.00743 46.33463,80.48777 6.10697,25.09854 24.01159,44.38509 36.22771,66.46071 13.94427,15.71212 27.00887,36.98939 26.2845,58.3218 -12.45844,19.005 -38.24077,5.8383 -50.90579,-6.428 -16.63834,-10.70995 -26.50884,-27.90516 -36.02496,-44.63166 -11.16771,-15.42064 -22.76495,-30.47034 -34.40424,-45.56685 -7.29125,-11.29734 -12.27105,-6.25079 -11.23916,5.65951 -2.18185,15.89357 0.16872,35.63478 -13.31027,46.98794 -9.2293,13.52246 -19.51057,25.99922 -29.91707,38.65336 -10.63035,15.4181 -27.23272,26.4724 -44.93932,31.6085 -18.358076,-1.6174 -9.261489,-28.8566 -3.6905,-39.59133 10.9929,-11.54107 23.10246,-22.6158 29.10827,-38.0865 -7.7511,10.35515 -33.585223,16.12661 -40.950538,0.0218 -7.387735,5.8846 -43.395828,17.99436 -49.531247,-8.22651 C 32.29889,930.95031 35.136775,909.56686 23.45504,892.20417 14.778527,877.0315 13.475672,855.02141 10.00004,838.36218 2.5901426,821.34139 3.8779508,794.07116 -0.66666667,777.02885" />
    <path
       style="fill:none;stroke:#000000;stroke-width:1px;stroke-linecap:butt;stroke-linejoin:miter;stroke-opacity:1"
       d="m 116,328.66667 c 7.40158,-2.17653 11.47681,0.93671 16.66667,2.66666"
       id="path3098"
       inkscape:connector-curvature="0"
       transform="translate(0,652.36218)" />
    <path
       style="fill:none;stroke:#000000;stroke-width:1px;stroke-linecap:butt;stroke-linejoin:miter;stroke-opacity:1"
       d="m 259.33333,320 c 1.64461,-7.64793 5.75402,-7.75401 9.33334,-11.33333"
       id="path3100"
       inkscape:connector-curvature="0"
       transform="translate(0,652.36218)" />
    <path
       style="fill:none;stroke:#000000;stroke-width:1px;stroke-linecap:butt;stroke-linejoin:miter;stroke-opacity:1"
       d="m 150,292.66667 c 6.55626,-1.94913 12.19141,2.0638 16,3.33333"
       id="path3104"
       inkscape:connector-curvature="0"
       transform="translate(0,652.36218)" />
    <path
       style="fill:none;stroke:#000000;stroke-width:1px;stroke-linecap:butt;stroke-linejoin:miter;stroke-opacity:1"
       d="m 233.33334,916.36218 c 3.1237,-3.76498 13.30115,-10.43372 24,-14"
       id="path3106"
       inkscape:connector-curvature="0" />
  </g>
</svg>
