<?xml version="1.0" encoding="UTF-8" standalone="no"?>
<!-- Created with Inkscape (http://www.inkscape.org/) -->

<svg
   xmlns:dc="http://purl.org/dc/elements/1.1/"
   xmlns:cc="http://creativecommons.org/ns#"
   xmlns:rdf="http://www.w3.org/1999/02/22-rdf-syntax-ns#"
   xmlns:svg="http://www.w3.org/2000/svg"
   xmlns="http://www.w3.org/2000/svg" xml:lang="en"
   xmlns:sodipodi="http://sodipodi.sourceforge.net/DTD/sodipodi-0.dtd"
   xmlns:inkscape="http://www.inkscape.org/namespaces/inkscape"
   width="400"
   height="400"
   id="svg2"
   version="1.1"
   inkscape:version="0.48.4 r"
   sodipodi:docname="left-hand-3d-coordinates-alt.svg">
  <defs
     id="defs4">
    <marker
       inkscape:stockid="Arrow1Lend"
       orient="auto"
       refY="0.0"
       refX="0.0"
       id="Arrow1Lend"
       style="overflow:visible;">
      <path
         id="path3923"
         d="M 0.0,0.0 L 5.0,-5.0 L -12.5,0.0 L 5.0,5.0 L 0.0,0.0 z "
         style="fill-rule:evenodd;stroke:#000000;stroke-width:1.0pt;"
         transform="scale(0.8) rotate(180) translate(12.5,0)" />
    </marker>
    <marker
       inkscape:stockid="Arrow1Mstart"
       orient="auto"
       refY="0.0"
       refX="0.0"
       id="Arrow1Mstart"
       style="overflow:visible">
      <path
         id="path3926"
         d="M 0.0,0.0 L 5.0,-5.0 L -12.5,0.0 L 5.0,5.0 L 0.0,0.0 z "
         style="fill-rule:evenodd;stroke:#000000;stroke-width:1.0pt"
         transform="scale(0.4) translate(10,0)" />
    </marker>
    <marker
       inkscape:stockid="Arrow1Lstart"
       orient="auto"
       refY="0.0"
       refX="0.0"
       id="Arrow1Lstart"
       style="overflow:visible">
      <path
         id="path3920"
         d="M 0.0,0.0 L 5.0,-5.0 L -12.5,0.0 L 5.0,5.0 L 0.0,0.0 z "
         style="fill-rule:evenodd;stroke:#000000;stroke-width:1.0pt"
         transform="scale(0.8) translate(12.5,0)" />
    </marker>
  </defs>
  <sodipodi:namedview
     id="base"
     pagecolor="#ffffff"
     bordercolor="#666666"
     borderopacity="1.0"
     inkscape:pageopacity="0.0"
     inkscape:pageshadow="2"
     inkscape:zoom="1.5"
     inkscape:cx="375"
     inkscape:cy="173.33333"
     inkscape:document-units="px"
     inkscape:current-layer="layer1"
     showgrid="false"
     borderlayer="true"
     inkscape:window-width="1280"
     inkscape:window-height="949"
     inkscape:window-x="-9"
     inkscape:window-y="-9"
     inkscape:window-maximized="1" />
  <metadata
     id="metadata7">
    <rdf:RDF>
      <cc:Work
         rdf:about="">
        <dc:format>image/svg+xml</dc:format>
        <dc:type
           rdf:resource="http://purl.org/dc/dcmitype/StillImage" />
        <dc:title></dc:title>
      </cc:Work>
    </rdf:RDF>
  </metadata>
  <g
     inkscape:label="Layer 1"
     inkscape:groupmode="layer"
     id="layer1"
     transform="translate(0,-652.36218)">
    <flowRoot
       xml:space="preserve"
       id="flowRoot3056"
       style="fill:black;stroke:none;stroke-opacity:1;stroke-width:1px;stroke-linejoin:miter;stroke-linecap:butt;fill-opacity:1;font-family:Sans;font-style:normal;font-weight:normal;font-size:14px;line-height:125%;letter-spacing:0px;word-spacing:0px;-inkscape-font-specification:Sans;font-stretch:normal;font-variant:normal;text-anchor:start;text-align:start;writing-mode:lr"><flowRegion
         id="flowRegion3058"><rect
           id="rect3060"
           width="36.666668"
           height="30.666666"
           x="354"
           y="82.666664" /></flowRegion><flowPara
         id="flowPara3062"></flowPara></flowRoot>    <text
       xml:space="preserve"
       style="font-size:36px;font-style:normal;font-variant:normal;font-weight:normal;font-stretch:normal;text-align:start;line-height:125%;letter-spacing:0px;word-spacing:0px;writing-mode:lr-tb;text-anchor:start;fill:#000000;fill-opacity:1;stroke:none;font-family:Sans;-inkscape-font-specification:Sans"
       x="352"
       y="105.33333"
       id="text3064"
       sodipodi:linespacing="125%"
       transform="translate(0,652.36218)"><tspan
         sodipodi:role="line"
         id="tspan3066"
         x="352"
         y="105.33333" /></text>
    <path
       style="fill:none;stroke:#7980f5;stroke-width:10;stroke-linecap:butt;stroke-linejoin:miter;stroke-miterlimit:4;stroke-opacity:1;stroke-dasharray:none;marker-start:none;marker-end:none"
       d="m 331,777.36218 c -205,0 -205,0 -205,0 0,180 0,180 0,180"
       id="path3146"
       inkscape:connector-curvature="0" />
    <path
       style="fill:none;stroke:#000000;stroke-width:1px;stroke-linecap:butt;stroke-linejoin:miter;stroke-opacity:1"
       d="m 22,750.36218 c 25.2139,-0.86855 50.917211,0.99901 74.934269,9.06418 16.269581,3.95972 33.223361,3.1167 49.574351,0.30322 13.2468,-0.87694 26.66505,-1.44441 39.75039,-3.02461 19.89645,2.32604 40.33034,-4.9322 59.79022,2.22625 10.95345,7.32625 25.94822,-4.36792 34.44298,6.46794 2.9637,12.81163 13.78279,19.06135 20.40991,29.48734 8.35643,14.18524 11.01676,32.62165 4.73704,48.05431 -5.22968,10.6873 -15.00985,18.03177 -22.2908,27.13496 -11.59521,8.32015 -26.26201,0.90628 -39.13991,4.44705 -9.0909,0.74023 -3.82813,-5.52268 -8.79065,-9.95284 4.47993,-13.43126 24.63272,-2.47672 31.096,-14.93356 6.58511,-6.80279 15.21975,-14.67127 6.60264,-23.11859 -0.1871,-10.82971 -6.07656,-18.76909 -16.66076,-19.42324 -14.24954,-6.69375 -27.5263,9.04809 -42.04336,4.65269 -9.21415,-0.53007 -20.74788,-0.0949 -28.56188,2.75612 14.58222,10.25557 28.91304,24.50202 30.554,43.22141 4.92125,10.19046 -2.92593,21.0533 -12.54681,24.53185 -9.76602,5.51678 -24.99528,7.03521 -25.00877,-8.329 -1.47905,-13.06786 -15.63429,-15.73118 -23.02026,-24.85483 -11.75028,-9.40912 -26.46068,-13.27472 -40.71346,-16.9571 -12.24983,-4.54823 -22.356445,-13.07732 -33.568574,-19.53648 -19.166316,2.19114 -38.816351,1.16453 -57.709564,-2.42741 l -0.594708,-0.23188 -0.575627,-0.22445"
       id="path5296"
       inkscape:connector-curvature="0" />
    <path
       style="fill:none;stroke:#000000;stroke-width:1px;stroke-linecap:butt;stroke-linejoin:miter;stroke-opacity:1"
       d="m 226,161.33333 c 6.87883,1.87521 10.79569,6.12902 15.33333,10.66667 0.74344,0.74344 0,6.16515 0,7.33333 0,1.25131 0.0245,3.97549 -0.66666,4.66667 -3.73622,3.73621 -7.96341,6.63007 -11.33334,10 -0.25976,0.25976 0,2.25984 0,2.66667 0,5.79595 2.15613,2.15613 4,4 1.41021,1.4102 -3.39477,4.60523 -1.33333,6.66666 2.71064,2.71064 3.33333,0.43937 3.33333,4"
       id="path5300"
       inkscape:connector-curvature="0"
       transform="translate(0,652.36218)" />
  </g>
</svg>
