<svg xmlns="http://www.w3.org/2000/svg" xml:lang="en" 
     xmlns:xlink="http://www.w3.org/1999/xlink"
     width="400px" height="575px" viewBox="-13 -20 46 66" >  <!--1-->
    <title>Rotations around arbitrary points</title>
    <style type="text/css">
        use                 { fill: slateBlue; }
        use:nth-of-type(2n) { fill: lightGreen; }
        use:last-of-type    { stroke: darkSlateGray; }
        circle              { fill: tomato; }
    </style>
    <defs>
        <path id="spade"
              d="M9,15C9,20 0,21 0,16S6,9 10,0C14,9 20,11 20,16
                 S11,20 11,15Q11,20 13,20H7Q9,20 9,15Z" />
    </defs>
     
    <use xlink:href="#spade" transform="rotate(60,10,0)"/>  <!--2-->
    <use xlink:href="#spade" transform="rotate(120,10,0)"/>
    <use xlink:href="#spade" transform="rotate(180,10,0)"/> 
    <use xlink:href="#spade" transform="rotate(240,10,0)"/> 
    <use xlink:href="#spade" transform="rotate(300,10,0)"/> 
    <use xlink:href="#spade" transform="rotate(360,10,0)"/> 
    <use xlink:href="#spade" transform="rotate(90,10,23)"/>  <!--3-->
    <use xlink:href="#spade" transform="rotate(180,10,23)"/>
    <use xlink:href="#spade" transform="rotate(-90,10,23)"/> <!--4-->
    <use xlink:href="#spade" />                              <!--5-->
    <circle cx="10" cy="0" r="1" />
    <circle cx="10" cy="23" r="1" />                         <!--6-->
</svg>