<svg xmlns="http://www.w3.org/2000/svg" xml:lang="en" 
     viewBox="0 0 216 175">
    <title>Moby Dick—Comic Book text (with proper fallback font layouts)</title>
    <style>
@font-face {
    font-family: 'SequentialistBB';
    src: url('fonts/SequentialistBB.woff2') format('woff2'),
    url('fonts/SequentialistBB.woff') format('woff');
    font-style: normal;
    font-weight: 400;
}
path { 
    fill: #fff; 
    stroke: #000; 
    stroke-width: 2;
}
text { 
    font-family: SequentialistBB, 
                 Papyrus-condensed, Impact, 
                 sans-serif-condensed, sans-serif; 
    font-stretch: condensed;
}
.gasp-lines {
    stroke: #000;
    stroke-width: 1px;
}
    </style>
    <path d="M61.5,172.6c0,0,18-11,20-19s-4.3-12.2-0.8-18.7
             s32.6-17.2,35.6-18.2s8.7-9.6,7.7-13.1s-3-7-3-7
             s5.5-0.9,7.6-0.6s16.9,1.8,20.8,0.9s7.6-2.5,11.2-3.1
             s8.8,0.1,13.1-0.6s11.5-2.2,19.4-7.4s9-6.2,10.2-7.2
             s8.4-8.2,9.5-19.1s-6.4-16.1-8.2-18.2s-2.6-7.6-7.2-12.1
             s-12.6-6.2-21.9-11.1s-7.2-9.6-17.2-13S146,6,138.5,6.1
             s-9-1.4-14.5-1.5s-13.5,0.5-16.5,1.1s-6.8,1.8-14.2,1.9
             s-8.5-2.2-17.8-1.1s-8.8,2.9-14,4S44,13.6,41.8,14
             s-10.1,3.2-12.5,6.6s-3.5,5.8-6.1,8.2S8.7,38.8,6.2,45.1
             S3,61.5,4,65.9s3.5,6.5,5.6,7.8s4.1,1.8,6.2,4
             c2.1,2.2,3.8,9,7.3,11.4c3.5,2.4,5.8,4,10.2,4.3
             c4.3,0.3,14.3-0.7,18,0.3c3.7,1,8.1,3.9,15.4,4.5
             c7.3,0.6,13.7-2.9,22.1-2.6c8.3,0.2,11.4,4.2,14,4.5
             c2.5,0.2,4.5,0,6.2,0c1.3,3.2,2,8-1.9,9.9
             c-3.9,1.9-24.8,9.6-27.6,11.3s-8,6.3-8.8,10.1
             c-0.8,3.8,1.1,8.9,3.1,12.2c1.9,3.3,4.1,8.9,2.6,12.1
             C74.8,158.9,71.7,164.6,61.5,172.6z" />
    <text font-size="20" y="45" x="103" text-anchor="middle">
        FROM HELL’s HEART</text>
    <text font-size="18" y="65" x="103" text-anchor="middle">
        I STAB</text>
    <text font-size="14" y="80" x="127" text-anchor="end">
        AT THEE…</text>
    <g class="gasp-lines" aria-label="(gasp)">
        <line x1="137" y1="72" x2="140" y2="74" />
        <line x1="144" y1="74" x2="147" y2="72" />
        <line x1="146" y1="76" x2="150" y2="76" />
        <line x1="146" y1="78" x2="150" y2="80" />
        <line x1="137" y1="80" x2="140" y2="78" />
        <line x1="135" y1="76" x2="140" y2="76" />
    </g>
</svg>