<svg xmlns="http://www.w3.org/2000/svg" xml:lang="en"
     xmlns:xlink="http://www.w3.org/1999/xlink"
     width="400px" height="300px" viewBox="0 0 400 300">
    <title>objectBoundingBox Gradient Units (asymmetric gradient)</title>
    <radialGradient id="gradient" cx="1" cy="0.5" r="1">   <!--1-->
        <stop stop-color="deepPink" offset="0" />
        <stop stop-color="mediumBlue" offset="0.3" />    <!--2-->
        <stop stop-color="lightBlue" offset="0.7" />
        <stop stop-color="darkGreen" offset="1" />
    </radialGradient>
    <g fill="url(#gradient)">                            <!--3-->
        <path id="swoosh" 
              d="M5,5 Q 185,50 5,95 Q 100,50 5,5 Z" />   <!--4-->
        <path id="swoosh2" 
              d="M105,105 Q 465,150 105,195 Q 300,150 105,105 Z" />
        <use xlink:href="#swoosh"
              transform="translate(400,100) rotate(90)" />
        
        <path id="plaque" 
              d="M105,30 l 35 -25 h 120 l 35 25
                 v 40 l -35 25 h -120 l -35 -25 z" />    <!--5-->
        <use xlink:href="#plaque"
             transform="translate(100, 200)" />
        <path id="plaque2"
              d="M10,80 l 35 -25 h 120 l 35 25
                 v 40 l -35 25 h -120 l -35 -25 z"
              transform="scale(0.5,2)"/>
        
        <path id="cross" d="M305,5 m10,0 
                            l35,35 l35,-35 l10,10
                            l-35,35 l35,35 l-10,10
                            l-35,-35 l-35,35 l-10,-10
                            l35,-35 l-35,-35 z" />       <!--6-->
        <use xlink:href="#cross" x="-200" y="+200" />
    </g>
</svg>