<svg xmlns="http://www.w3.org/2000/svg" xml:lang="en"
     xmlns:xlink="http://www.w3.org/1999/xlink"
     width="400px" height="300px" viewBox="0 0 400 300">
    <title>userSpaceOnUse Gradient Units</title>
    <radialGradient id="gradient" gradientUnits="userSpaceOnUse"><!--1-->
        <stop stop-color="deepPink" offset="0"/>
        <stop stop-color="mediumBlue" offset="0.3"/>     <!--2-->
        <stop stop-color="lightBlue" offset="0.7"/>
        <stop stop-color="darkGreen" offset="1"/>
    </radialGradient>
    <g fill="url(#gradient)">                            <!--3-->
        <path id="swoosh" 
              d="M5,5 Q 185,50 5,95 Q 100,50 5,5 Z" />   <!--4-->
        <path id="swoosh2" 
              d="M105,105 Q 465,150 105,195 Q 300,150 105,105 Z" />
        <path id="swoosh-transformed"
              d="M5,5 Q 185,50 5,95 Q 100,50 5,5 Z"
              transform="translate(300,200) rotate(90)" />
        
        <polygon id="plaque" 
                 points="105,30 140,5 260,5 295,30 
                         295,70 260,95 140,95 105,70"/>  <!--5-->
        <use xlink:href="#plaque" 
             transform="translate(-100,+200)" />
        <polygon id="plaque2" 
                 points="330,105 370,105 395,140 395,260 
                         370,295 330,295 305,260 305,140" />
        
        <path id="cross" d="M5,105 m10,0 
                            l35,35 l35,-35 l10,10
                            l-35,35 l35,35 l-10,10
                            l-35,-35 l-35,35 l-10,-10
                            l35,-35 l-35,-35 z" />       <!--6-->
        <use xlink:href="#cross" x="300" y="-100" />
    </g>
</svg>