<svg id="svg-source" height="0" version="1.1" 
  xmlns="http://www.w3.org/2000/svg" xml:lang="en" style="position:absolute; margin-left: -100%" 
  xmlns:xlink="http://www.w3.org/1999/xlink">
  <g id="design-pencil-rule" data-iconmelon="Streamline Icon Set:63d24eb28b16a3e01867a12dff807424">
    <g id="Expanded">
      <g>
        <g>
          <path  d="M28,32h-9.333C18.298,32,18,31.701,18,31.333V0.667C18,0.299,18.298,0,18.667,0H28
				c0.368,0,0.667,0.299,0.667,0.667v30.667C28.667,31.701,28.368,32,28,32z M19.333,30.667h8V1.333h-8V30.667z"></path>
        </g>
        <g>
          <rect x="18.667" y="5.333"  width="3.333" height="1.333"></rect>
        </g>
        <g>
          <rect x="18.667" y="9.333"  width="3.333" height="1.333"></rect>
        </g>
        <g>
          <rect x="18.667" y="13.333"  width="3.333" height="1.333"></rect>
        </g>
        <g>
          <rect x="18.667" y="17.333"  width="3.333" height="1.334"></rect>
        </g>
        <g>
          <rect x="18.667" y="21.333"  width="3.333" height="1.334"></rect>
        </g>
        <g>
          <rect x="18.667" y="25.333"  width="3.333" height="1.334"></rect>
        </g>
        <g>
          <path  d="M9.333,30.667H6.666c-1.838,0-3.333-1.496-3.333-3.334V8c0-0.131,0.039-0.261,0.112-0.37l4-6
				c0.247-0.371,0.861-0.371,1.109,0l4,6c0.072,0.109,0.111,0.239,0.111,0.37v19.333C12.666,29.171,11.171,30.667,9.333,30.667z
				 M4.666,8.202v19.131c0,1.104,0.897,2,2,2h2.667c1.103,0,2-0.896,2-2V8.202L8,3.202L4.666,8.202z"></path>
        </g>
        <g>
          <path  d="M12,26.667H4c-0.369,0-0.667-0.299-0.667-0.667S3.631,25.333,4,25.333h8c0.368,0,0.666,0.299,0.666,0.667
				S12.368,26.667,12,26.667z"></path>
        </g>
        <g>
          <path  d="M12,24H4c-0.369,0-0.667-0.299-0.667-0.667c0-0.367,0.298-0.666,0.667-0.666h8
				c0.368,0,0.666,0.299,0.666,0.666C12.666,23.701,12.368,24,12,24z"></path>
        </g>
        <g>
          <path  d="M6.666,24C6.298,24,6,23.701,6,23.333V10.667C6,10.299,6.298,10,6.666,10
				c0.369,0,0.667,0.299,0.667,0.667v12.667C7.333,23.701,7.035,24,6.666,24z"></path>
        </g>
        <g>
          <path  d="M9.333,24c-0.369,0-0.667-0.299-0.667-0.667V10.667C8.666,10.299,8.964,10,9.333,10S10,10.299,10,10.667
				v12.667C10,23.701,9.702,24,9.333,24z"></path>
        </g>
        <g>
          <rect x="6" y="4.667"  width="4" height="1.333"></rect>
        </g>
        <g>
          <path  d="M6,11.333c-1.471,0-2.667-1.196-2.667-2.667C3.333,8.299,3.631,8,4,8c0.368,0,0.666,0.299,0.666,0.667
				C4.666,9.402,5.265,10,6,10s1.333-0.598,1.333-1.333C7.333,8.299,7.631,8,8,8c0.368,0,0.666,0.299,0.666,0.667
				C8.666,10.137,7.471,11.333,6,11.333z"></path>
        </g>
        <g>
          <path  d="M10,11.333c-1.471,0-2.667-1.196-2.667-2.667C7.333,8.299,7.631,8,8,8c0.368,0,0.666,0.299,0.666,0.667
				C8.666,9.402,9.265,10,10,10s1.333-0.598,1.333-1.333C11.333,8.299,11.631,8,12,8c0.368,0,0.666,0.299,0.666,0.667
				C12.666,10.137,11.471,11.333,10,11.333z"></path>
        </g>
      </g>
    </g>
  </g>
  <g id="computer-macintosh-vintage" data-iconmelon="Streamline Icon Set:d269dcd64245469fc9b28f3be3963c8a">
    <g id="Expanded">
      <g>
        <g>
          <path  d="M23.333,22.667h-16c-1.103,0-2-0.897-2-2v-16C5.333,2.093,7.427,0,10,0h10.667
				c2.572,0,4.666,2.093,4.666,4.667v16C25.333,21.77,24.437,22.667,23.333,22.667z M10,1.333c-1.838,0-3.333,1.495-3.333,3.333v16
				c0,0.367,0.3,0.666,0.667,0.666h16c0.367,0,0.667-0.299,0.667-0.666v-16c0-1.838-1.495-3.333-3.333-3.333H10z"></path>
        </g>
        <g>
          <path  d="M20.667,14.667H10c-1.103,0-2-0.897-2-2v-8c0-1.103,0.897-2,2-2h10.667c1.103,0,2,0.897,2,2v8
				C22.667,13.769,21.77,14.667,20.667,14.667z M10,4C9.633,4,9.333,4.299,9.333,4.667v8c0,0.367,0.299,0.667,0.667,0.667h10.667
				c0.367,0,0.666-0.3,0.666-0.667v-8C21.333,4.299,21.034,4,20.667,4H10z"></path>
        </g>
        <g>
          <path  d="M20.667,17.333h-4c-0.368,0-0.667-0.299-0.667-0.666C16,16.299,16.299,16,16.667,16h4
				c0.367,0,0.666,0.299,0.666,0.667C21.333,17.034,21.034,17.333,20.667,17.333z"></path>
        </g>
        <g>
          <path  d="M31.333,32H0.667C0.299,32,0,31.701,0,31.333v-2.666c0-0.178,0.07-0.347,0.195-0.472l4-4
				C4.32,24.07,4.49,24,4.667,24h22.667c0.178,0,0.347,0.07,0.472,0.195l4,4C31.93,28.32,32,28.489,32,28.667v2.666
				C32,31.701,31.701,32,31.333,32z M1.333,30.667h29.333v-1.725l-3.609-3.609H4.943l-3.609,3.609V30.667z"></path>
        </g>
        <g>
          <path  d="M31.333,29.333H0.667C0.299,29.333,0,29.034,0,28.667C0,28.299,0.299,28,0.667,28h30.667
				C31.701,28,32,28.299,32,28.667C32,29.034,31.701,29.333,31.333,29.333z"></path>
        </g>
        <g>
          <path  d="M28.667,25.333h-1.334V24h1.334c1.103,0,2-0.897,2-2s-0.897-2-2-2h-4v-1.333h4
				C30.505,18.667,32,20.162,32,22S30.505,25.333,28.667,25.333z"></path>
        </g>
        <g>
          <path  d="M8,26c-0.368,0-0.667,0.298-0.667,0.667c0,0.368,0.299,0.666,0.667,0.666s0.667-0.298,0.667-0.666
				C8.667,26.298,8.368,26,8,26L8,26z"></path>
        </g>
        <g>
          <path  d="M12,26c-0.368,0-0.667,0.298-0.667,0.667c0,0.368,0.299,0.666,0.667,0.666s0.667-0.298,0.667-0.666
				C12.667,26.298,12.368,26,12,26L12,26z"></path>
        </g>
        <g>
          <path  d="M16,26c-0.368,0-0.667,0.298-0.667,0.667c0,0.368,0.299,0.666,0.667,0.666s0.667-0.298,0.667-0.666
				C16.667,26.298,16.368,26,16,26L16,26z"></path>
        </g>
        <g>
          <path  d="M20,26c-0.368,0-0.667,0.298-0.667,0.667c0,0.368,0.299,0.666,0.667,0.666s0.667-0.298,0.667-0.666
				C20.667,26.298,20.368,26,20,26L20,26z"></path>
        </g>
        <g>
          <path  d="M24,26c-0.368,0-0.667,0.298-0.667,0.667c0,0.368,0.299,0.666,0.667,0.666s0.667-0.298,0.667-0.666
				C24.667,26.298,24.368,26,24,26L24,26z"></path>
        </g>
      </g>
    </g>
  </g>
  <g id="work" data-iconmelon="Brainy Icons:b1ab9723380ed3f4e17e8443132f9b4c">
    <path fill-rule="evenodd" clip-rule="evenodd" d="M25.277,26.208c0-0.984,0.002-1.969-0.002-2.953c0-0.265,0.021-0.538-0.035-0.792
	c-0.197-0.882-0.491-1.746-0.43-2.672c0.012-0.163-0.166-0.234-0.326-0.246c-0.287-0.023-0.531,0.207-0.488,0.48
	c0.039,0.256,0.178,0.487,0.1,0.771c-0.119,0.436-0.2,0.884-0.286,1.328c-0.107,0.555-0.275,1.111-0.288,1.67
	c-0.026,1.058-0.02,2.124,0.086,3.175c0.094,0.939-0.174,1.794-0.4,2.667c-0.082,0.318-0.447,0.495-0.727,0.331
	c-0.423-0.247-0.865-0.23-1.318-0.249c-0.755-0.031-1.51-0.096-2.265-0.109c-1.097-0.02-2.196-0.027-3.293,0
	c-1.02,0.026-2.038,0.101-3.058,0.157c-0.186,0.011-0.377,0.015-0.557,0.059c-0.742,0.179-1.5,0.125-2.252,0.154
	c-0.168,0.006-0.279-0.079-0.225-0.277c0.029-0.11,0.064-0.218,0.083-0.33c0.012-0.073,0-0.15-0.005-0.225
	c-0.013-0.187-0.285-0.329-0.427-0.207c-0.339,0.292-0.652,0.613-0.991,0.903c-0.35,0.298-0.687,0.171-0.812-0.305
	c-0.049-0.183-0.055-0.375-0.27-0.455c-0.189-0.072-0.418,0.013-0.591,0.228c-0.048,0.059-0.104,0.117-0.128,0.186
	C6.23,29.94,5.91,30.042,5.486,30c-0.324-0.031-0.428-0.133-0.303-0.406c0.223-0.484,0.404-0.98,0.482-1.507
	c0.02-0.13-0.035-0.292-0.107-0.409c-0.074-0.122-0.294-0.062-0.488,0.115c-0.422,0.386-0.791,0.813-1.033,1.338
	c-0.111,0.24-0.197,0.493-0.322,0.725c-0.078,0.146-0.239,0.169-0.396,0.119c-0.416-0.136-0.56-0.324-0.387-0.75
	c0.199-0.489,0.355-0.996,0.512-1.501c0.08-0.26-0.011-0.442-0.305-0.477c-0.301-0.034-0.381-0.168-0.379-0.427
	c0.002-0.416,0.018-0.834-0.002-1.25c-0.045-0.946,0.039-1.877,0.189-2.814c0.113-0.705,0.082-1.433,0.107-2.152
	c0.004-0.108-0.007-0.243-0.066-0.326c-0.264-0.375-0.195-0.798-0.193-1.208c0.012-2.044,0.045-4.089,0.047-6.133
	c0.002-1.513-0.031-3.027-0.053-4.54C2.785,8.112,2.882,8.005,3.191,7.983c1.055-0.072,2.113-0.121,3.166-0.229
	C6.879,7.701,7.396,7.559,7.9,7.409c0.154-0.045,0.309-0.224,0.381-0.38C8.371,6.83,8.447,6.582,8.41,6.375
	c-0.198-1.151-0.232-2.33-0.582-3.456c-0.09-0.288-0.152-0.586-0.199-0.883C7.566,1.643,7.705,1.443,8.084,1.41
	c0.604-0.053,1.209-0.102,1.813-0.1c1.06,0.001,2.118,0.04,3.177,0.066c0.342,0.008,0.682,0.014,1.021,0.036
	c1.66,0.113,3.318,0.24,4.979,0.342c1.166,0.072,2.344-0.054,3.5,0.226c0.173,0.042,0.371-0.022,0.559-0.037
	c0.031,0.218,0.08,0.437,0.09,0.657c0.016,0.378,0.012,0.757,0.01,1.135c0,0.307,0.026,0.604,0.233,0.856
	c0.202,0.246,0.235,0.54,0.263,0.849c0.055,0.601,0.148,1.198,0.237,1.795c0.005,0.035,0.138,0.092,0.149,0.08
	c0.232-0.241,0.564-0.454,0.658-0.745c0.219-0.677,0.365-1.383,0.264-2.114c-0.142-1.009-0.25-2.024-0.404-3.032
	c-0.045-0.29-0.186-0.571-0.313-0.841c-0.104-0.221-0.312-0.353-0.56-0.291c-0.381,0.095-0.734,0.059-1.1-0.074
	c-0.172-0.062-0.373-0.049-0.562-0.054c-1.436-0.04-2.872-0.096-4.309-0.108c-3.56-0.028-7.119-0.043-10.678-0.047
	c-1.199-0.001-0.967-0.164-1.73,0.921c-0.088,0.124-0.246,0.24-0.254,0.367c-0.021,0.397-0.321,0.58-0.541,0.832
	C3.641,3.211,2.726,4.312,2.107,5.63C1.95,5.967,1.711,6.269,1.49,6.572C1.334,6.785,1.127,6.961,0.977,7.177
	C0.875,7.325,0.771,7.516,0.775,7.686c0.014,0.981,0.012,1.969,0.117,2.942c0.054,0.488,0.124,0.971,0.11,1.463
	c-0.062,2.27-0.149,4.538-0.178,6.808c-0.042,3.294-0.042,6.588-0.056,9.882c-0.002,0.34,0.014,0.682,0.033,1.021
	c0.03,0.519,0.143,1.028-0.045,1.552c-0.106,0.298,0.156,0.621,0.482,0.635c0.413,0.017,0.836,0.02,1.242-0.045
	c1.231-0.197,2.463-0.376,3.715-0.34c0.492,0.015,0.984,0.011,1.477,0.007c1.817-0.017,3.635-0.024,5.451-0.063
	c0.641-0.015,1.279-0.156,1.92-0.161c1.967-0.015,3.936,0.007,5.902,0.018c0.15,0,0.301,0.027,0.451,0.042
	c0.602,0.058,1.203,0.134,1.806,0.17c0.446,0.027,0.915,0.117,1.328-0.141c0.366-0.227,0.27-0.686,0.46-1.006
	c0.262-0.439,0.299-0.922,0.289-1.422C25.266,28.102,25.277,27.155,25.277,26.208z M5.408,3.635c0.12,0.059,0.205,0.074,0.246,0.124
	c0.213,0.258,0.439,0.509,0.609,0.794c0.107,0.181,0.135,0.414,0.178,0.628c0.013,0.06-0.025,0.157-0.072,0.194
	c-0.033,0.026-0.146,0-0.186-0.04C5.879,5.007,5.58,4.676,5.285,4.338c-0.068-0.08-0.17-0.21-0.146-0.278
	C5.194,3.903,5.317,3.771,5.408,3.635z M4.58,5.125c0.006,0.008,0.008,0.019,0.012,0.028c0.018,0.013,0.036,0.025,0.055,0.038
	C4.65,5.224,4.658,5.253,4.669,5.279c0.042,0.042,0.083,0.084,0.125,0.126c0.026,0.01,0.055,0.018,0.089,0.02
	c0.002,0.023,0.005,0.046,0.008,0.07c0.118,0.089,0.152,0.219,0.166,0.359C5.068,5.861,5.08,5.869,5.095,5.875
	C5.17,5.952,5.246,6.028,5.32,6.105c0.014,0.027,0.023,0.056,0.039,0.082l0.066,0.042C5.406,6.22,5.377,6.215,5.365,6.2
	C5.363,6.196,5.362,6.191,5.359,6.187C5.336,6.171,5.311,6.156,5.287,6.141c-0.075-0.078-0.15-0.155-0.225-0.232
	C5.061,5.89,5.059,5.872,5.057,5.854C4.92,5.772,4.904,5.634,4.891,5.495C4.876,5.484,4.866,5.471,4.85,5.461
	C4.83,5.442,4.812,5.424,4.794,5.405c-0.06-0.023-0.101-0.066-0.125-0.126C4.65,5.261,4.632,5.242,4.613,5.223
	C4.605,5.2,4.6,5.176,4.592,5.153C4.566,5.136,4.541,5.119,4.516,5.101C4.537,5.108,4.569,5.109,4.58,5.125z M3.199,6.388
	C3.26,6.294,3.336,6.21,3.408,6.123c0.024-0.028,0.056-0.052,0.084-0.077c0.117-0.107,0.217-0.026,0.271,0.06
	C3.84,6.222,3.9,6.361,3.914,6.496c0.004,0.035-0.18,0.1-0.281,0.136c-0.07,0.024-0.149,0.022-0.301,0.041
	c-0.027-0.01-0.125-0.035-0.205-0.087C3.113,6.577,3.16,6.448,3.199,6.388z M31.242,10.548c-0.029-0.146-0.1-0.285-0.161-0.421
	C30.51,8.849,29.805,7.643,29.1,6.437c-0.123-0.209-0.298-0.336-0.551-0.333c-0.114,0.002-0.228,0-0.281,0
	c-0.402-0.011-0.732-0.001-1.043,0.196c-0.15,0.095-0.371,0.18-0.529,0.141c-0.373-0.089-0.562,0.135-0.778,0.344
	c-2.995,2.893-5.991,5.781-8.979,8.68c-0.68,0.659-1.334,1.345-1.98,2.034c-0.203,0.216-0.396,0.468-0.506,0.739
	c-0.311,0.769-0.609,1.543-0.74,2.374c-0.064,0.405-0.213,0.802-0.357,1.189c-0.279,0.743-0.579,1.478-0.878,2.212
	c-0.146,0.358-0.241,0.727-0.134,1.104c0.033,0.117,0.176,0.257,0.293,0.286c0.471,0.116,0.891-0.079,1.299-0.285
	c0.506-0.256,0.996-0.547,1.518-0.767c0.938-0.395,1.891-0.763,2.849-1.11c0.417-0.151,0.708-0.39,0.923-0.778
	c0.143-0.259,0.344-0.499,0.564-0.698c1.096-0.988,2.207-1.958,3.309-2.94c1.131-1.007,2.26-2.014,3.379-3.032
	c0.391-0.355,0.742-0.753,1.129-1.112c0.359-0.333,0.786-0.604,1.105-0.969c0.723-0.826,1.502-1.591,2.305-2.332
	C31.266,11.148,31.303,10.856,31.242,10.548z M27.977,7.866c0.004,0.005,0.006,0.013,0.009,0.02
	c0.021,0.012,0.042,0.024,0.063,0.036c0.003,0.033,0.011,0.062,0.021,0.087c0.04,0.042,0.08,0.083,0.121,0.124
	c0.026,0.012,0.057,0.021,0.092,0.025c-0.002,0.019-0.004,0.038-0.004,0.057c0.238,0.171,0.29,0.448,0.377,0.703
	c0.008,0.02-0.033,0.065-0.061,0.084c-0.011,0.007-0.053-0.025-0.074-0.045c-0.221-0.206-0.264-0.465-0.242-0.742
	c-0.011-0.007-0.02-0.015-0.029-0.022c-0.02-0.02-0.039-0.04-0.059-0.06c-0.057-0.025-0.098-0.066-0.121-0.124
	c-0.018-0.018-0.036-0.037-0.055-0.056c-0.01-0.023-0.019-0.046-0.03-0.067c-0.022-0.013-0.046-0.026-0.068-0.039
	C27.938,7.853,27.967,7.852,27.977,7.866z M17.186,22.303c-0.617,0.284-1.232,0.569-1.859,0.829
	c-0.402,0.167-0.93-0.243-0.938-0.707c-0.002-0.112,0.008-0.228,0.032-0.337c0.136-0.627,0.278-1.252,0.421-1.878
	c0.039-0.172,0.186-0.197,0.327-0.059c0.107,0.106,0.237,0.199,0.313,0.325c0.426,0.693,1.023,1.194,1.729,1.579
	c0.031,0.017,0.051,0.054,0.078,0.084C17.258,22.191,17.236,22.28,17.186,22.303z M29.076,11.39
	c-0.234,0.295-0.463,0.598-0.724,0.87c-0.866,0.898-1.724,1.807-2.626,2.668c-0.902,0.861-1.854,1.669-2.783,2.501
	c-1.295,1.159-2.604,2.307-3.879,3.488c-0.332,0.308-0.601,0.289-0.996,0.157c-0.766-0.254-1.289-0.782-1.723-1.403
	c-0.229-0.33-0.633-0.545-0.687-0.994c0.257-0.275,0.505-0.558,0.772-0.823c0.641-0.641,1.283-1.285,1.941-1.91
	c0.656-0.625,1.34-1.222,1.996-1.846c0.713-0.678,1.408-1.374,2.113-2.059c0.377-0.367,0.723-0.759,1.191-1.036
	c0.316-0.187,0.553-0.509,0.822-0.774c0.482-0.479,0.957-0.967,1.449-1.438c0.256-0.246,0.404-0.219,0.656,0.071
	c0.098,0.115,0.199,0.229,0.285,0.352c0.285,0.408,0.617,0.724,1.095,0.939c0.399,0.18,0.716,0.544,1.063,0.835
	c0.053,0.043,0.069,0.128,0.104,0.193C29.125,11.252,29.119,11.336,29.076,11.39z M28.037,11.058
	c-0.34,0.237-0.676,0.48-0.996,0.741c-0.409,0.333-0.796,0.693-1.203,1.029c-1.133,0.936-2.274,1.862-3.409,2.795
	c-0.96,0.79-1.923,1.579-2.871,2.383c-0.373,0.316-0.725,0.661-1.058,1.019c-0.117,0.125-0.174,0.323-0.213,0.499
	c-0.016,0.078,0.084,0.181,0.15,0.309c0.16-0.051,0.324-0.062,0.432-0.146c0.832-0.646,1.656-1.3,2.477-1.96
	c1.145-0.922,2.279-1.855,3.424-2.777c1.176-0.946,2.32-1.924,3.367-3.011c0.129-0.133,0.262-0.282,0.324-0.449
	c0.047-0.119,0.02-0.3-0.041-0.42C28.325,10.881,28.154,10.975,28.037,11.058z M21.568,15.515c1.137-0.995,2.359-1.892,3.4-2.998
	c0.181-0.191,0.395-0.353,0.602-0.518c0.443-0.352,0.9-0.686,1.334-1.05c0.166-0.138,0.28-0.337,0.426-0.517
	c-0.104-0.123-0.157-0.232-0.245-0.281c-0.087-0.047-0.243-0.082-0.308-0.036c-0.521,0.369-1.052,0.733-1.537,1.148
	c-0.949,0.808-1.861,1.658-2.805,2.471c-0.828,0.714-1.738,1.343-2.506,2.115c-0.826,0.832-1.658,1.652-2.547,2.418
	c-0.084,0.072-0.144,0.173-0.209,0.264c-0.082,0.114-0.06,0.36,0.053,0.408c0.092,0.04,0.234,0.076,0.305,0.032
	c0.287-0.176,0.576-0.359,0.827-0.582C19.434,17.439,20.486,16.459,21.568,15.515z"></path>
  </g>
  <g id="internet" data-iconmelon="Brainy Icons:f041b4cf38bea32389499f83d93ade69">
    <path fill-rule="evenodd" clip-rule="evenodd" d="M31.762,26.498c-0.299-0.806-0.641-1.596-0.976-2.388
	c-0.345-0.818-0.949-1.504-1.206-2.369c-0.043-0.141-0.164-0.258-0.252-0.385c-0.33-0.477-0.756-0.801-1.356-0.854
	c-0.306-0.027-0.608-0.104-0.913-0.106c-1.353-0.01-2.701-0.045-4.054-0.166c-1.683-0.148-3.38-0.14-5.07-0.208
	c-1.162-0.046-2.337,0.12-3.483-0.202c-1.412-0.073-2.825-0.147-4.238-0.221c0,0.011-0.001,0.022-0.001,0.033
	c-0.432,0-0.862-0.006-1.294,0.002c-0.43,0.008-0.861,0.019-1.291,0.049c-0.428,0.032-0.853,0.118-1.28,0.133
	c-0.624,0.021-1.234,0.139-1.793,0.381c-0.428,0.188-0.899,0.346-1.188,0.802c-0.737,1.17-1.543,2.298-2.263,3.479
	c-0.712,1.166-1.236,2.407-1.074,3.83c0.021,0.184,0.022,0.369,0.039,0.553c0.012,0.122,0.025,0.247,0.057,0.364
	c0.116,0.438,0.46,0.715,0.914,0.746c0.216,0.016,0.443-0.014,0.643,0.048c0.86,0.267,1.741,0.325,2.632,0.392
	c0.771,0.059,1.527,0.104,2.294-0.026c0.545-0.093,1.099-0.161,1.65-0.181c0.736-0.026,1.478-0.024,2.214,0.021
	c0.735,0.045,1.466,0.159,2.199,0.238c0.121,0.013,0.246,0.009,0.368-0.004c1.626-0.169,3.257-0.156,4.888-0.125
	c0.708,0.014,1.416,0.013,2.124-0.003c1.138-0.024,2.271-0.051,3.404,0.142c0.477,0.081,0.98,0.017,1.472-0.004
	c0.366-0.016,0.73-0.089,1.097-0.098c0.615-0.014,1.232,0.009,1.848,0.006c0.677-0.003,1.354-0.012,2.031-0.029
	c0.506-0.014,0.959-0.183,1.375-0.476c0.242-0.171,0.376-0.374,0.401-0.682c0.028-0.334,0.067-0.685,0.193-0.989
	C32.12,27.602,31.965,27.044,31.762,26.498z M30.045,27.588c-0.146,0.046-0.292,0.11-0.442,0.126
	c-1.71,0.187-3.413,0.39-5.142,0.103c-0.936-0.156-1.89-0.21-2.824-0.4c-0.208-0.042-0.429-0.028-0.644-0.028
	c-1.754-0.007-3.509-0.044-5.262-0.005c-1.011,0.023-2.022,0.033-3.035,0.151c-0.905,0.104-1.828,0.121-2.749-0.091
	c-0.493-0.114-1.038-0.012-1.561,0.006c-0.366,0.013-0.733,0.06-1.101,0.066c-1.415,0.027-2.83,0.035-4.245,0.071
	c-0.354,0.01-0.667-0.067-0.966-0.241c-0.251-0.146-0.346-0.36-0.249-0.619c0.128-0.345,0.287-0.68,0.295-1.06
	c0.001-0.058,0.021-0.127,0.057-0.173c0.556-0.699,0.697-1.64,1.355-2.288c0.234-0.23,0.373-0.558,0.556-0.842
	c0.285-0.444,0.655-0.655,1.219-0.673c1.751-0.053,3.5-0.171,4.682-0.234c1.77,0.021,2.968-0.045,4.164,0.129
	c0.479,0.069,0.98-0.012,1.472-0.026c0.338-0.01,0.682-0.066,1.012-0.024c1.165,0.15,2.334,0.106,3.502,0.125
	c0.522,0.008,1.038,0.051,1.559,0.11c1.221,0.139,2.449,0.192,3.677,0.265c0.398,0.024,0.8-0.006,1.2-0.003
	c0.214,0.002,0.432,0.003,0.644,0.035c0.62,0.095,1.105,0.373,1.278,1.027c0.097,0.364,0.276,0.682,0.52,0.967
	c0.06,0.07,0.133,0.14,0.161,0.223c0.336,0.987,0.913,1.882,1.124,2.917C30.35,27.441,30.308,27.508,30.045,27.588z M3.238,17.193
	c0.014,0.121,0.023,0.248,0.064,0.361c0.33,0.925,1.161,1.739,2.262,1.745c0.335,0.002,0.668,0.124,1.005,0.015
	c0.89,0.254,1.766-0.03,2.647-0.066c0.369-0.016,0.741-0.02,1.105-0.067c0.707-0.092,1.407-0.088,2.115,0.004
	c0.762,0.099,1.528,0.175,2.296,0.215c1.689,0.089,3.381,0.153,5.071,0.222c0.584,0.024,1.177-0.018,1.753,0.059
	c1.166,0.156,2.334,0.138,3.503,0.141c1.038,0.004,1.991-0.32,2.875-0.854c0.379-0.229,0.655-0.537,0.83-0.957
	c0.407-0.975,0.688-1.973,0.691-3.035c0.006-1.479,0.001-2.956,0.001-4.923c0.013-0.867,0.031-2.221,0.052-3.576
	c0.017-1.118-0.167-2.199-0.553-3.253c-0.288-0.783-0.807-1.276-1.604-1.517c-0.539-0.163-1.084-0.225-1.639-0.216
	c-1.691,0.027-3.385-0.043-5.074,0.146c-0.822,0.094-1.654-0.031-2.482-0.071c-2.677-0.132-5.353,0.005-8.025,0.179
	C10.039,1.75,9.945,1.749,9.855,1.768c-0.641,0.13-1.286,0.094-1.931,0.048c-0.122-0.01-0.25-0.051-0.364-0.026
	C6.954,1.923,6.34,1.918,5.725,1.945c-0.999,0.044-1.423,0.281-2.059,1.04c-0.02,0.023-0.043,0.044-0.059,0.071
	c-0.06,0.105-0.141,0.207-0.17,0.322c-0.08,0.327-0.165,0.658-0.202,0.992C3.092,5.656,3.024,6.946,3.017,8.24
	c-0.019,2.863,0.11,5.724,0.2,8.584C3.222,16.947,3.225,17.07,3.238,17.193z M4.752,9.852c0.056-1.166,0.096-2.334,0.179-3.498
	c0.045-0.641,0.198-1.271,0.283-1.91C5.268,4.047,5.51,3.848,5.863,3.759C6.399,3.625,6.935,3.443,7.479,3.4
	c1.283-0.101,2.561-0.255,3.863-0.108c0.938,0.105,1.901-0.011,2.854-0.032c0.245-0.006,0.49-0.038,0.735-0.041
	c2-0.021,4-0.032,6-0.062c0.921-0.014,1.843,0.006,2.761-0.113c0.455-0.059,0.922-0.023,1.384-0.029
	c0.6-0.009,1.14,0.176,1.669,0.454c0.527,0.279,0.863,0.697,1.02,1.248C27.904,5.215,28.012,5.721,28,6.256
	c-0.028,1.414-0.01,2.83-0.01,4.246h-0.031c0,1.415-0.019,2.831,0.007,4.245c0.018,0.983-0.372,1.813-0.962,2.53
	c-0.426,0.52-1.011,0.845-1.742,0.921c-0.647,0.068-1.275,0.046-1.92,0.011c-1.964-0.107-3.932-0.168-5.898-0.229
	c-0.768-0.024-1.537,0.018-2.297-0.149c-0.207-0.045-0.429-0.023-0.644-0.039c-0.674-0.051-1.347-0.111-2.021-0.154
	c-0.829-0.054-1.653-0.039-2.484,0.055c-1.282,0.146-2.573,0.218-3.849-0.094c-0.208-0.051-0.413-0.12-0.611-0.201
	c-0.234-0.096-0.413-0.259-0.517-0.5c-0.182-0.424-0.349-0.845-0.342-1.324C4.705,13.665,4.662,11.756,4.752,9.852z M19.061,24.34
	c-0.192-0.384-0.496-0.619-0.938-0.638c-0.276-0.011-0.552-0.014-0.829-0.015c-0.581-0.004-1.161,0.033-1.737-0.124
	c-0.229-0.062-0.493-0.059-0.73-0.019c-0.602,0.103-1.199,0.23-1.792,0.376c-0.132,0.032-0.266,0.157-0.347,0.275
	c-0.322,0.469-0.465,0.991-0.436,1.565c0.033,0.67,0.431,1.085,1.091,1.091c0.859,0.008,1.718,0.002,2.577,0.002v-0.057
	c0.858,0,1.718,0.001,2.578-0.001c0.152,0,0.307-0.002,0.458-0.02c0.183-0.021,0.335-0.182,0.36-0.367
	c0.068-0.521,0.04-1.043-0.058-1.558C19.225,24.676,19.143,24.503,19.061,24.34z M17.864,26.047
	c-0.245,0.007-0.491,0.016-0.734-0.004c-0.794-0.062-1.585-0.145-2.378-0.201c-0.271-0.02-0.544,0.016-0.816,0.027
	c-0.201,0.009-0.318-0.067-0.338-0.223c-0.041-0.297,0.027-0.469,0.238-0.521c0.235-0.059,0.478-0.116,0.719-0.125
	c0.52-0.019,1.042-0.005,1.562-0.005v-0.037c0.49,0,0.98-0.005,1.471,0.001c0.372,0.006,0.501,0.114,0.569,0.457
	c0.018,0.09,0.021,0.183,0.024,0.274C18.19,25.914,18.083,26.041,17.864,26.047z M23.623,11.467c-0.86,0-1.722,0-2.491,0
	c-1.015,0.021-1.938,0.027-2.86,0.062c-0.334,0.012-0.666,0.097-1.002,0.132c-0.257,0.026-0.376,0.188-0.44,0.405
	c-0.044,0.146-0.078,0.3-0.081,0.45c-0.013,0.953,0.022,1.91-0.037,2.861c-0.038,0.626,0.817,0.413,0.807,0.968
	c-0.001,0.042,0.146,0.089,0.227,0.128c0.025,0.013,0.06,0.012,0.09,0.011c0.8-0.02,1.6-0.03,2.399-0.063
	c0.582-0.023,1.163-0.084,1.745-0.111c0.492-0.022,0.984-0.018,1.477-0.031c0.23-0.007,0.417-0.115,0.529-0.318
	c0.164-0.295,0.299-0.594,0.291-0.953c-0.019-0.891,0.002-1.777,0.16-2.664C24.558,11.659,24.336,11.468,23.623,11.467z
	 M18.174,12.652c-0.133,0.3-0.274,0.596-0.417,0.899c-0.017,0.013-0.04,0.031-0.063,0.049c-0.018-0.024-0.047-0.049-0.048-0.075
	c-0.013-0.326-0.029-0.652-0.02-0.979c0.001-0.049,0.13-0.132,0.201-0.135c0.109-0.004,0.225,0.039,0.329,0.082
	C18.181,12.506,18.193,12.608,18.174,12.652z M18.545,13.725c0.003-0.007,0.006-0.014,0.008-0.021
	c0.006-0.003,0.01-0.007,0.016-0.01c-0.064-0.45,0.176-0.791,0.432-1.119c0.12-0.153,0.307-0.181,0.497-0.153
	c0.027,0.005,0.069,0.02,0.076,0.04c0.016,0.045,0.037,0.121,0.016,0.142c-0.365,0.34-0.558,0.844-1.021,1.091
	c0.001,0.01,0.001,0.019,0.002,0.028L18.545,13.725c-0.019,0.044-0.037,0.088-0.055,0.131C18.395,13.743,18.465,13.73,18.545,13.725
	z M21.292,15.287c-0.091,0.074-0.183,0.188-0.283,0.199c-0.455,0.049-0.913,0.066-1.234,0.087c-0.473,0-0.809,0.003-1.146-0.001
	c-0.167-0.002-0.234-0.088-0.177-0.21c0.246-0.524,0.487-1.05,0.737-1.572c0.079-0.163,0.176-0.319,0.273-0.474
	c0.021-0.033,0.082-0.041,0.124-0.061c0.004,0.058,0.024,0.12,0.008,0.17c-0.059,0.174-0.14,0.339-0.194,0.514
	c-0.045,0.144-0.076,0.294-0.092,0.444c-0.019,0.188,0.021,0.366,0.185,0.49c0.185,0.138,0.346,0.053,0.498-0.061
	c0.126-0.093,0.203-0.076,0.271,0.072c0.049,0.109,0.117,0.216,0.199,0.303c0.108,0.115,0.239,0.183,0.403,0.075
	c0.102-0.065,0.215-0.117,0.329-0.159c0.021-0.007,0.077,0.058,0.105,0.099C21.312,15.222,21.308,15.274,21.292,15.287z
	 M22.299,12.614c-0.256,0.237-0.407,0.591-0.771,0.71c0,0.009,0,0.019-0.001,0.027c-0.013,0.003-0.025,0.005-0.039,0.008
	c-0.019,0.026-0.037,0.053-0.057,0.078c0.005-0.021,0.002-0.053,0.016-0.062c0.012-0.008,0.026-0.013,0.041-0.016
	c0.007-0.009,0.014-0.018,0.02-0.026c0.008-0.003,0.014-0.007,0.021-0.009c0.008-0.172-0.001-0.348,0.034-0.515
	c0.082-0.393,0.221-0.464,0.669-0.384C22.332,12.443,22.374,12.545,22.299,12.614z M23.393,13.606
	c-0.046,0.814-0.038,0.816-0.748,1.165c-0.037,0.019-0.119-0.001-0.149-0.032c-0.034-0.037-0.06-0.118-0.043-0.161
	c0.16-0.397,0.348-0.785,0.491-1.188c0.089-0.249,0.271-0.498,0.119-0.789c-0.007-0.135,0.076-0.223,0.205-0.213
	c0.135,0.011,0.25,0.075,0.238,0.218C23.48,12.939,23.412,13.271,23.393,13.606z M7.51,7.935c0,0.614-0.017,1.228,0.007,1.841
	c0.015,0.413,0.229,0.61,0.64,0.627c0.366,0.015,0.735,0.001,1.104-0.008c0.613-0.014,1.227-0.043,1.84-0.049
	c0.643-0.006,1.287-0.011,1.918,0.164c0.281,0.078,0.57,0.039,0.747-0.219c0.208-0.305,0.36-0.652,0.305-1.032
	c-0.122-0.826-0.098-1.646,0.009-2.471c0.038-0.302,0.033-0.613,0.014-0.918c-0.028-0.428-0.296-0.677-0.718-0.677
	c-0.644,0-1.288,0.02-1.933,0.023c-0.92,0.006-1.841-0.004-2.762,0.01C8.016,5.235,7.52,5.719,7.502,6.37
	C7.486,6.891,7.498,7.413,7.498,7.935H7.51z M13.073,6.163c0.018-0.003,0.044,0.039,0.066,0.06c-0.021,0.021-0.046,0.062-0.062,0.06
	c-0.056-0.011-0.108-0.038-0.162-0.058C12.968,6.203,13.019,6.175,13.073,6.163z M10.643,6.537c0.024-0.112,0.098-0.219,0.162-0.32
	c0.059-0.094,0.314-0.117,0.422-0.05c0.025,0.017,0.049,0.036,0.072,0.055c-0.007,0.028-0.009,0.06-0.021,0.085
	c-0.085,0.16-0.172,0.318-0.258,0.479c-0.36,0.665-0.503,0.838-0.553,0.706C10.334,7.142,10.576,6.854,10.643,6.537z M10.266,9.189
	c0.076-0.042,0.174-0.09,0.252-0.075c0.221,0.039,0.421,0.013,0.627-0.07c0.066-0.027,0.193-0.02,0.237,0.025
	c0.314,0.326,0.647,0.282,0.997,0.078c0.025-0.015,0.072-0.029,0.086-0.018c0.059,0.051,0.122,0.104,0.154,0.172
	c0.012,0.024-0.047,0.112-0.088,0.128c-0.082,0.028-0.176,0.033-0.264,0.034c-0.306,0.004-0.61,0.001-0.916,0.001
	c0-0.008,0.001-0.018,0.001-0.026c-0.367,0-0.734,0.002-1.102-0.005c-0.031-0.001-0.093-0.074-0.087-0.1
	C10.179,9.279,10.218,9.215,10.266,9.189z M9.531,6.201c0.043-0.032,0.112-0.035,0.17-0.039c0.023-0.002,0.05,0.027,0.074,0.043
	c0.013,0.022,0.043,0.056,0.036,0.067C9.676,6.508,9.538,6.74,9.396,6.972C9.386,6.989,9.338,6.995,9.312,6.988
	S9.242,6.949,9.245,6.935C9.297,6.674,9.289,6.386,9.531,6.201z M8.876,9.056c0.292-0.153,0.291-0.152,0.505,0.098
	C9.42,9.2,9.465,9.242,9.508,9.285c0.094,0.098,0.034,0.153-0.061,0.172c-0.269,0.055-0.54,0.099-0.77,0.141
	c-0.073-0.016-0.11-0.014-0.131-0.031c-0.044-0.037-0.1-0.08-0.113-0.131C8.422,9.388,8.439,9.3,8.476,9.275
	C8.602,9.191,8.74,9.127,8.876,9.056z M8.481,6.198c0.021,0.05,0.042,0.099,0.063,0.147C8.51,6.367,8.475,6.389,8.44,6.411
	C8.432,6.358,8.417,6.307,8.42,6.256C8.42,6.236,8.46,6.217,8.481,6.198z M16.515,10.172c0.481,0.093,0.97,0.175,1.458,0.197
	c1.91,0.085,3.811-0.123,5.715-0.203c0.182-0.008,0.365-0.056,0.537-0.116c0.109-0.038,0.206-0.127,0.295-0.208
	c0.123-0.112,0.07-0.404-0.081-0.478c-0.082-0.04-0.171-0.086-0.258-0.09c-0.214-0.011-0.431-0.006-0.645,0.006
	c-1.474,0.079-2.946,0.163-4.42,0.245c-0.001-0.028-0.002-0.055-0.003-0.083c-0.738,0-1.477-0.003-2.215,0.003
	c-0.182,0.001-0.365,0.021-0.545,0.05c-0.118,0.019-0.236,0.28-0.162,0.382C16.277,9.994,16.391,10.149,16.515,10.172z
	 M24.566,7.647c-0.238-0.049-0.485-0.071-0.729-0.072c-1.63-0.003-3.262,0.008-4.893,0.003c-0.551-0.002-1.104,0.046-1.653-0.091
	c-0.127-0.031-0.298,0.044-0.427,0.111c-0.144,0.075-0.203,0.226-0.17,0.394c0.032,0.16,0.125,0.276,0.286,0.327
	c0.058,0.018,0.119,0.034,0.179,0.038c0.705,0.044,1.41,0.102,2.117,0.125c0.676,0.021,1.354,0.004,2.03,0.004v0.007
	c0.861,0,1.724-0.001,2.585,0c0.246,0,0.493,0.007,0.717-0.125c0.143-0.085,0.23-0.2,0.213-0.374
	C24.806,7.828,24.726,7.681,24.566,7.647z M16.576,6.332c0.146,0.042,0.295,0.09,0.446,0.106c0.821,0.091,1.642,0.189,2.465,0.251
	c0.642,0.047,1.286,0.043,1.963,0.062c0.794-0.019,1.621-0.038,2.448-0.061c0.152-0.005,0.306-0.015,0.455-0.04
	c0.172-0.029,0.317-0.219,0.324-0.398c0.01-0.209-0.171-0.425-0.385-0.442c-0.152-0.013-0.31-0.022-0.459,0.001
	c-1.096,0.18-2.2,0.093-3.302,0.105c-0.274,0.004-0.55-0.022-0.823-0.052c-0.79-0.083-1.58-0.178-2.371-0.259
	c-0.182-0.019-0.367-0.008-0.551-0.003c-0.06,0.001-0.121,0.019-0.177,0.04c-0.155,0.06-0.247,0.171-0.265,0.339
	C16.328,6.142,16.418,6.286,16.576,6.332z M13.497,15.197c-0.676-0.008-1.345,0.064-2.017,0.133c-0.67,0.068-1.35,0.03-2.025,0.039
	c-0.43,0.007-0.859,0.014-1.289,0.023c-0.189,0.004-0.356,0.064-0.5,0.198c-0.141,0.13-0.132,0.383,0.024,0.472
	c0.249,0.14,0.515,0.188,0.796,0.187c0.461-0.003,0.922-0.001,1.382-0.001c0.001,0.01,0.001,0.02,0.001,0.029
	c1.286-0.059,2.572-0.118,3.857-0.18c0.091-0.004,0.183-0.024,0.271-0.047c0.221-0.057,0.363-0.271,0.326-0.485
	c-0.031-0.188-0.18-0.34-0.367-0.356C13.805,15.195,13.65,15.198,13.497,15.197z M13.919,13.532
	c-0.124-0.072-0.287-0.115-0.431-0.111c-0.244,0.008-0.485,0.081-0.729,0.092c-0.768,0.033-1.536,0.047-2.305,0.073
	c-0.767,0.026-1.534,0.051-2.301,0.094c-0.176,0.011-0.362,0.067-0.519,0.149c-0.143,0.075-0.201,0.249-0.131,0.399
	c0.044,0.097,0.154,0.187,0.255,0.225c0.109,0.041,0.242,0.02,0.364,0.02c0.769,0.002,1.537,0.002,2.396,0.002
	c0.709-0.019,1.509-0.021,2.306-0.067c0.363-0.021,0.725-0.114,1.076-0.21c0.153-0.041,0.231-0.218,0.203-0.376
	C14.086,13.715,14.009,13.585,13.919,13.532z M7.69,12.534c0.111,0.043,0.236,0.063,0.357,0.071c1.133,0.08,2.267,0.154,3.399,0.23
	c0-0.008,0.001-0.016,0.001-0.022c0.584,0,1.167,0.004,1.75-0.004c0.15-0.002,0.303-0.036,0.451-0.069
	c0.128-0.029,0.258-0.222,0.245-0.354c-0.018-0.169-0.115-0.298-0.271-0.333c-0.177-0.041-0.364-0.048-0.546-0.045
	c-0.89,0.018-1.774,0.007-2.665-0.084c-0.882-0.09-1.778-0.044-2.669-0.051c-0.155-0.001-0.288,0.154-0.287,0.301
	C7.458,12.343,7.535,12.474,7.69,12.534z"></path>
  </g>
  <filter id='drop-hard-shadow' data-iconmelon='filter:b93fa1365ec6c906f299932677cd4316' x="0" y="0" width="200%" height="200%">
    <feOffset result="offOut" in="SourceAlpha" dx="1" dy="1" />
    <feGaussianBlur result="blurOut" in="offOut" stdDeviation="1" />
    <feBlend in="SourceGraphic" in2="blurOut" mode="normal" />
  </filter>
  <filter id='emboss' data-iconmelon='filter:8c13842ad3ba7fc9372b2b965292b7c0' x="-25%" y="-25%" width="150%" height="150%">
    <feOffset in="SourceAlpha" dx="0.16666666666666666" dy="0.8333333333333334" result="17"></feOffset>
    <feGaussianBlur stdDeviation="0.5" in="17" result="18"></feGaussianBlur>
    <feSpecularLighting surfaceScale="1" specularConstant="0.9" specularExponent="15" in="18" result="19">
      <fePointLight x="-1000" y="-5000"   z="300"></fePointLight>
    </feSpecularLighting>
    <feComposite in="19" in2="SourceAlpha" operator="in" result="20"></feComposite>
    <feOffset in="SourceAlpha" dx="-0.16666666666666666" dy="-0.8333333333333334" result="21"></feOffset>
    <feGaussianBlur stdDeviation="0.5" in="21" result="22"></feGaussianBlur>
    <feSpecularLighting surfaceScale="1" specularConstant="1.8" specularExponent="8" in="22" result="23">
      <fePointLight x="100" y="5000" z="300"></fePointLight>
    </feSpecularLighting>
    <feComposite in="23" in2="SourceAlpha" operator="in" result="24"></feComposite
    
  >
    <feColorMatrix values="0 0 0 0 0 0 0 0 0 0 0 0 0 0 0 0 0 0 .85 0" in="24" result="25"></feColorMatrix>
    <feComposite k1="0" k2="0.8" k3="0.5" k4="0" in="20" in2="25" operator="arithmetic" result="26"></feComposite>
    <feMerge in="26" result="27">
      <feMergeNode in="SourceGraphic"></feMergeNode>
      <feMergeNode in="26"></feMergeNode>
    </feMerge>
  </filter>
</svg>