<svg xmlns="http://www.w3.org/2000/svg" xml:lang="en"
     xmlns:xlink="http://www.w3.org/1999/xlink"
     viewBox="0 0 260 310" width="4in" height="4.8in">
  <title>Fill-rule shapes, with markers</title>
  <style>
.shape {
  fill: lightSkyBlue;
  stroke: darkRed;
  stroke-width: 4;
}
text {
  fill: indigo;
  font: bold 14px Segoe UI, sans-serif;
}
.markers-only {
  fill: none;
  stroke: none;
  stroke-width: 2.5;
  marker-end: url(#arrow); 
}
.ray {
  fill: none;
  stroke: indigo;
  stroke-width: 3;
  marker-end: url(#arrow2)
}
marker#arrow { fill: darkRed; stroke: tomato; stroke-width: 0.8; }
marker#arrow2 { fill: lightSkyBlue; stroke: indigo; stroke-width: 0.8; }
  </style>
  <marker id="arrow" overflow="visible" orient="auto">
    <path id="arrowhead" d="M2,0 l-4,-2 1,2 -1,2 z" />
  </marker>
  <marker id="arrow2" overflow="visible" orient="auto">
    <use xlink:href="#arrowhead" />
  </marker>
  <path class="shape"
        d="M 10,5 
           l 100,10 -80,80 0,-60 80,80 -100,10 z" />
  <g>
    <g class="markers-only">
      <path d="M 10,5   L 60,10" />
      <path d="M 110,15 L 80,45" />
      <path d="M 60,65 L 45,80" />
      <path d="M 30,95  L 30,65" />
      <path d="M 30,35  L 45,50" />
      <path d="M 60,65  L 80,85" />
      <path d="M 110,115 L 60,120"/>
      <path d="M 10,125  L 10,100"/>
      <path d="M 10,125  L 10,30" />
    </g>
    <path class="ray" 
          d="M 105,45 Q 65,15 55,57"/>
    <text x="100" y="60">0</text>
    <text x="55" y="105">+1</text>
    <text x="55" y="30">+1</text>
    <text x="32" y="70">+2</text>
  </g>
  <text x="10" y="140">crossing</text>
  
  <path class="shape"
        d="M 150,5 
           l 100,10 -50,45 -30,-25 0,60 30,-25 50,45 -100,10 z" />
  <g transform="translate(140,0)">
    <g class="markers-only">
      <path d="M 10,5   L 60,10" />
      <path d="M 110,15 L 80,42.5" />
      <path d="M 60,60 L 45,47.5" />
      <path d="M 30,35  L 30,65" />
      <path d="M 30,95  L 45,82.5" />
      <path d="M 60,70  L 80,87.5" />
      <path d="M 110,115 L 60,120"/>
      <path d="M 10,125  L 10,100"/>
      <path d="M 10,125  L 10,30" />
    </g>
    <path class="ray" 
          d="M 105,45 Q 65,15 55,57"/>
    <text x="100" y="60">0</text>
    <text x="55" y="30">+1</text>
    <text x="55" y="105">+1</text>
    <text x="40" y="70">0</text>
  </g>
  <text x="150" y="140">reversing</text>
  
  <path class="shape"
        d="M 10,160 
           l 100,10 -40,50 40,50 -100,10 z
           m 50,60 
           l-30,30 0,-60 z" />
  <g transform="translate(0,155)">
    <g class="markers-only">
      <path d="M 10,5   L 60,10" />
      <path d="M 110,15 L 85,45" />
      <path d="M 70,65  L 85,85" />
      <path d="M 110,115 L 60,120"/>
      <path d="M 10,125  L 10,100"/>
      <path d="M 10,125  L 10,30" />
      <path d="M 60,65 L 45,80" />
      <path d="M 30,95  L 30,65" />
      <path d="M 30,35  L 45,50" />
    </g>
    <path class="ray" 
          d="M 105,45 Q 65,15 55,57"/>
    <text x="100" y="60">0</text>
    <text x="55" y="105">+1</text>
    <text x="55" y="30">+1</text>
    <text x="32" y="70">+2</text>
  </g>
  <text x="10" y="300">same-direction</text>
  
  <path class="shape"
        d="M 150,160 
           l 100,10 -40,50 40,50 -100,10 z
           m 50,60 
           l -30,-30 0,60 z" />
  <g transform="translate(140,155)">
    <g class="markers-only">
      <path d="M 10,5   L 60,10" />
      <path d="M 110,15 L 85,45" />
      <path d="M 70,65  L 85,85" />
      <path d="M 110,115 L 60,120"/>
      <path d="M 10,125  L 10,100"/>
      <path d="M 10,125  L 10,30" />
      <path d="M 60,65 L 45,50" />
      <path d="M 30,35  L 30,65" />
      <path d="M 30,95  L 45,80" />
    </g>
    <path class="ray" 
          d="M 105,45 Q 65,15 55,57"/>
    <text x="100" y="60">0</text>
    <text x="55" y="105">+1</text>
    <text x="55" y="30">+1</text>
    <text x="38" y="70">0</text>
  </g>
  <text x="150" y="300">opposite</text>
</svg>