<svg xmlns="http://www.w3.org/2000/svg" xml:lang="en"
     xmlns:xlink="http://www.w3.org/1999/xlink"
     height="400px" width="400px" viewBox="-5 -5 30 30">
    <title>Heart, showing path points</title>
    <use xlink:href="graphing.svg#grid" opacity="0.7"/>
    <path id="heart"
          fill="red" fill-opacity="0.8"
          d="M 10,6 
             Q 10,0 15,0 
             T 20,6 
             Q 20,10 15,14 
             T 10,20 
             Q 10,18 5,14
             T 0,6
             Q 0,0 5,0
             T 10,6
             Z" />
    <style>
        .handles {
            stroke: currentColor;
            fill: none;
            stroke-width: 0.2;
        }
        .handles.reflected {
            stroke-dasharray: 0.1 0.4;
            stroke-linecap: round;
            stroke-width: 0.3;
        }
    </style>
    <g color="indigo" style="--accentColor: mediumOrchid">
        <path class="handles"
              d="M 10,6 
                 L 10,0 L 15,0
                 M 20,6 
                 L 20,10 L 15,14 
                 M 10,20 
                 L 10,18 L 5,14
                 M 0,6
                 L 0,0 L 5,0
                 M 10,6 " />
        <path class="handles reflected"
              d="M 10,6 
                 M 15,0 
                 L 20,0 L 20,6 
                 M 15,14 
                 L 10,18 L 10,20 
                 M 5,14
                 L 0,10 L 0,6
                 M 5,0
                 L 10,0 L 10,6 " />
        <use xlink:href="graphing.svg#control-point"     x="10" y="0" />
        <use xlink:href="graphing.svg#control-point"     x="20" y="10" />
        <use xlink:href="graphing.svg#control-point"     x="10" y="18" />
        <use xlink:href="graphing.svg#control-point"     x="0"  y="0" />
        <use xlink:href="graphing.svg#reflected-control" x="20" y="0" />
        <use xlink:href="graphing.svg#reflected-control" x="10" y="18" />
        <use xlink:href="graphing.svg#reflected-control" x="0"  y="10" />
        <use xlink:href="graphing.svg#reflected-control" x="10" y="0" />
        <use xlink:href="graphing.svg#vertex" x="10" y="6" />
        <use xlink:href="graphing.svg#vertex" x="15" y="0" />
        <use xlink:href="graphing.svg#vertex" x="20" y="6" />
        <use xlink:href="graphing.svg#vertex" x="15" y="14" />
        <use xlink:href="graphing.svg#vertex" x="10" y="20" />
        <use xlink:href="graphing.svg#vertex" x="5"  y="14" />
        <use xlink:href="graphing.svg#vertex" x="0"  y="6" />
        <use xlink:href="graphing.svg#vertex" x="5"  y="0" />
        <use xlink:href="graphing.svg#vertex" x="10" y="6" />
    </g>
</svg>