<svg xmlns="http://www.w3.org/2000/svg" xml:lang="en" 
     xmlns:xlink="http://www.w3.org/1999/xlink"
     id="gameboard" width="8in" height="6in">
    <title>Gem Collector Game</title>
    <desc>
        Click or tap as many circles as you can
        before the timer runs out.
    </desc>
    <style>
        #gameboard {
            max-height: 100vh;
            max-width: 100%;
            background: #224;
        }
        .count {
            fill: lightYellow;
            font: 20px Consolas, monospace;
        }
        #timer, #scoreboard {
            font-size: 300%;
            transition: font-size 1s;
        }
        #timer[aria-live] {
            animation: flash-color 0.3s alternate infinite;
        }
        .clicked {
            opacity: 0.1;
            pointer-events: none;
        }
        
        .game-over #scoreboard {
            font-size: 800%;
            animation: flash-color 0.5s 16 alternate;
        }
        @keyframes flash-color {
            to { fill: tomato; }
        }
        .game-over .clickable { fill: black; }
        .game-over .clicked {
            opacity: 1;
            filter: drop-shadow(0 0 3px gold);
        }
    </style>
    <defs>
        <svg id="gem" viewBox="0 0 100 100"
             x="-8" y="-8" width="16" height="16">
            <polygon points="0,25 35,0 65,0 100,25 50,100" />
            <g fill="white" fill-opacity="0.3">
                <polygon points="0,25 30,30 50,100" />
                <polygon points="100,25 30,70 50,100" />
                <polygon points="28,5 35,0 65,0 72,5 50,10" />
                <polygon points="50,10 30,30 50,35 70,30" />
                <polygon points="72,5 70,30 100,25" />
            </g>
            <g stroke="white" stroke-opacity="0.5" fill-opacity="0.5">
                <polygon points="100,25 70,30 50,100" />
                <polygon points="28,5 30,30 0,25" />
            </g>
        </svg>
    </defs>
    <text class="count" role="timer" aria-atomic="true"
          x="100%" y="0.9em" text-anchor="end">Time remaining:<tspan x="0">
        </tspan><tspan id="timer" x="100%" dy="0.9em">00.0</tspan>s
    </text>
    <text class="count" role="status" aria-atomic="true"
          y="100%" dy="-0.1em" text-anchor="start"
          ><tspan id="scoreboard">0</tspan> collected
    </text>
    <script xlink:href="gem-click-game.js" />
</svg>