<?xml version="1.0" encoding="UTF-8" standalone="no"?>
<svg id="normal_distribution"
   version="1.1"
   baseProfile="full"
   xmlns="http://www.w3.org/2000/svg"
   xmlns:xlink="http://www.w3.org/1999/xlink"
   xmlns:ev="http://www.w3.org/2001/xml-events"
   viewBox="0 0 480 180"
   width="480"
   height="180">

  <title>Normal_distribution.svg - a nice plot of the gaussian normal distribution</title>
  <desc>
     Normal distribution
     phi(x) = \frac 1{\sqrt{2\pi}} e^{-\frac{1}{2}x^2}
     from Wikimedia Commons
     plot-range: -4 to 4
     plotted with cubic bezier-curves
     the bezier-controll-points are calculated to give a very accurate result.
     accuracy is 0.000001 units
     created with a plain text editor using GNU/Linux

     about: http://commons.wikimedia.org/wiki/Image:normal_distribution.svg
     source: http://commons.wikimedia.org/
     rights: GNU Free Documentation license,
             Creative Commons Attribution ShareAlike license
      
     Modified by Amelia Bellamy-Royds to use real text for the labels
     (among other tweaks).
  </desc>

  <marker id="Arrow" refX="2.52" refY="2.25" markerUnits="strokeWidth"
     markerWidth="6" markerHeight="4.5" orient="auto">
    <path d="M 2.52 2.25 L 0 4.5 L 6 2.25 L 0 0 z" />
  </marker>
  <style>
    text { 
      font-family: Computer Modern, Georgia;
      font-variant-numeric: lining-nums;
      font-size: 20px;
    }
    #xlabels {
      text-anchor: middle;
      dominant-baseline: top;
    }
    #ylabels, #ylabels_s {
      text-anchor: end;
      dominant-baseline: middle;
    }
  </style>



  <rect id="background" x="0" y="0" width="480" height="180" fill="white"/>

  <g transform="translate(234.5, 148.5)">
    <!-- grid -->
    <g id="grid"
       transform="scale(1,-1)"
       style="stroke:lightBlue; stroke-width:1; stroke-linecap:butt">
      <path id="gridx"
         d="M -200,0 V 112.5
            M -150,0 V 112.5
            M -100,0 V 112.5
            M  -50,0 V 112.5
            M   50,0 V 112.5
            M  100,0 V 112.5
            M  150,0 V 112.5
            M  200,0 V 112.5"/>
      <path id="gridy"
         d="M -200, 50 H 200
            M -200,100 H 200"/>
    </g>

    <!-- ticks -->
    <g id="ticks"
       transform="scale(1,-1)"
       style="stroke:black; stroke-width:1; stroke-linecap:square">
      <path id="ticksx"
         d="M -200,-5 V 5
            M -150,-5 V 5
            M -100,-5 V 5
            M  -50,-5 V 5
            M    0,-5 V 5
            M   50,-5 V 5
            M  100,-5 V 5
            M  150,-5 V 5
            M  200,-5 V 5"/>
      <path id="ticksy"
         d="M -5, 50 H 5
            M -5,100 H 5"/>
    </g>

    <!-- axes -->
    <line id="x-axis" x1="-228" x2="228" y1="0" y2="0" stroke="black"
       stroke-width="2" marker-end="url(#Arrow)" />
    <line id="y-axis" x1="0" x2="0" y1="0" y2="-127.5" stroke="black"
       stroke-width="2" marker-end="url(#Arrow)" />

    <!-- label shadings -->
    <g stroke="white" stroke-width="3px" stroke-linejoin="round">
      <g id="ylabels_s" transform="translate(-9,7)">
        <g id="y02_s" transform="translate(0,-50)">
          <text>0.2</text>
        </g>
        <g id="y04_s" transform="translate(0,-100)">
          <text>0.4</text>
        </g>
      </g>
    </g>    
    
    <!-- labels -->
    <g id="xl" transform="translate(237,17)">
      <use xlink:href="#x" x="-285.75" y="0" />
    </g>
    <g id="xlabels" transform="translate(0,25)">
      <g id="xm4" transform="translate(-200,0)">
        <text>-4</text>
      </g>
      <g id="xm3" transform="translate(-150,0)">
          <text>-3</text>
      </g>
      <g id="xm2" transform="translate(-100,0)">
          <text>-2</text>
      </g>
      <g id="xm1" transform="translate(-50,0)">
          <text>-1</text>
      </g>

      <g id="x0" transform="translate(0,0)">
          <text>0</text>
      </g>
      <g id="x1" transform="translate(50,0)">
          <text>1</text>
      </g>
      <g id="x2" transform="translate(100,0)">
          <text>2</text>
      </g>
      <g id="x3" transform="translate(150,0)">
          <text>3</text>
      </g>
      <g id="x4" transform="translate(200,0)">
          <text>4</text>
      </g>
    </g>
    <g id="ylabels" transform="translate(-9,7)">
      <g id="y02" transform="translate(0,-50)">
        <text>0.2</text>
      </g>
      <g id="y04" transform="translate(0,-100)">
        <text>0.4</text>
      </g>
    </g>

    <!-- the control points lie on the tangents of the function.
         they are furthermore positioned in a way to minimize the average
         quadratic distance between the bezier-curve and the function. -->
         
    <!-- normal distribution curve -->
    <g transform="scale(50, -50)">
      <path id="ndist-curve" fill="red" fill-opacity="0.3" stroke="red"
         stroke-width="0.064px" stroke-linecap="butt"
         d="M -4.000000,0.000669
            C -3.690002,0.001499 -3.459493,0.003549 -3.266249,0.009622
            C -3.019777,0.017368 -2.811702,0.032370 -2.623992,0.063790
            C -2.368130,0.106616 -2.141617,0.181404 -1.919938,0.315820
            C -1.755910,0.415280 -1.606331,0.540234 -1.459488,0.687596
            C -1.292032,0.855645 -1.137945,1.042985 -0.988212,1.224115
            C -0.785177,1.469723 -0.592034,1.701583 -0.394466,1.845403
            C -0.263125,1.941013 -0.133946,1.994711 0.000000,1.994711
            C 0.133946,1.994711 0.263125,1.941013 0.394466,1.845403
            C 0.592034,1.701583 0.785177,1.469723 0.988212,1.224115
            C 1.137945,1.042985 1.292032,0.855645 1.459488,0.687596
            C 1.606331,0.540234 1.755910,0.415280 1.919938,0.315820
            C 2.141617,0.181404 2.368130,0.106616 2.623992,0.063790
            C 2.811702,0.032370 3.019777,0.017368 3.266249,0.009622
            C 3.459493,0.003549 3.690002,0.001499 4.000000,0.000669" />
    </g>
  </g>
</svg>

