<svg xmlns="http://www.w3.org/2000/svg" xml:lang="en" 
     xmlns:xlink="http://www.w3.org/1999/xlink"
     viewBox="-0.05 -0.05 5.05 4.05">
    <rect width="100%" height="100%" x="-0.05" y="-0.05"
          fill="gray" />
    <image xlink:href="animate-logo.19.png" width="0.95" height="0.95"
           x="0" y="0" />
    <image xlink:href="animate-logo.01.png" width="0.95" height="0.95"
           x="1" y="0" />
    <image xlink:href="animate-logo.02.png" width="0.95" height="0.95"
           x="2" y="0" />
    <image xlink:href="animate-logo.03.png" width="0.95" height="0.95"
           x="3" y="0" />
    <image xlink:href="animate-logo.04.png" width="0.95" height="0.95"
           x="4" y="0" />
    <image xlink:href="animate-logo.05.png" width="0.95" height="0.95"
           x="0" y="1" />
    <image xlink:href="animate-logo.06.png" width="0.95" height="0.95"
           x="1" y="1" />
    <image xlink:href="animate-logo.07.png" width="0.95" height="0.95"
           x="2" y="1" />
    <image xlink:href="animate-logo.08.png" width="0.95" height="0.95"
           x="3" y="1" />
    <image xlink:href="animate-logo.09.png" width="0.95" height="0.95"
           x="4" y="1" />
    <image xlink:href="animate-logo.10.png" width="0.95" height="0.95"
           x="0" y="2" />
    <image xlink:href="animate-logo.11.png" width="0.95" height="0.95"
           x="1" y="2" />
    <image xlink:href="animate-logo.12.png" width="0.95" height="0.95"
           x="2" y="2" />
    <image xlink:href="animate-logo.13.png" width="0.95" height="0.95"
           x="3" y="2" />
    <image xlink:href="animate-logo.14.png" width="0.95" height="0.95"
           x="4" y="2" />
    <image xlink:href="animate-logo.15.png" width="0.95" height="0.95"
           x="0" y="3" />
    <image xlink:href="animate-logo.16.png" width="0.95" height="0.95"
           x="1" y="3" />
    <image xlink:href="animate-logo.17.png" width="0.95" height="0.95"
           x="2" y="3" />
    <image xlink:href="animate-logo.18.png" width="0.95" height="0.95"
           x="3" y="3" />
    <image xlink:href="animate-logo.19.png" width="0.95" height="0.95"
           x="4" y="3" />
</svg>