<svg xmlns="http://www.w3.org/2000/svg" xml:lang="en" 
     xmlns:xlink="http://www.w3.org/1999/xlink"
     id="gameboard" width="8in" height="6in"
     style="background: #224;"><!-- inline background color to avoid Chrome bug with external stylesheets not triggering repaint -->
    <title>Gem Collector Game</title>
    <desc>
        Click or tap as many circles as you can
        before the timer runs out.
    </desc>
    <link xmlns="http://www.w3.org/1999/xhtml" rel="stylesheet" 
          href="../ch18-interaction-files/gem-click-game-misses.css"/>
    <defs>
        <svg id="gem" viewBox="0 0 100 100"
             x="-8" y="-8" width="16" height="16">
            <polygon points="0,25 35,0 65,0 100,25 50,100" />
            <g fill="white" fill-opacity="0.3">
                <polygon points="0,25 30,30 50,100" />
                <polygon points="100,25 30,70 50,100" />
                <polygon points="28,5 35,0 65,0 72,5 50,10" />
                <polygon points="50,10 30,30 50,35 70,30" />
                <polygon points="72,5 70,30 100,25" />
            </g>
            <g stroke="white" stroke-opacity="0.5" fill-opacity="0.5">
                <polygon points="100,25 70,30 50,100" />
                <polygon points="28,5 30,30 0,25" />
            </g>
        </svg>
    </defs>
    <g id="misses"></g>
    <text class="count" text-anchor="end" role="timer"
          aria-atomic="true"
          x="100%" y="0.9em">Time remaining:<tspan x="0">
        </tspan><tspan id="timer" x="100%" dy="0.9em">00.0</tspan>s
    </text>
    <text class="count" text-anchor="start" role="status"
          y="100%" dy="-0.1em"><tspan id="scoreboard">0</tspan> collected
    </text>
    <script xlink:href="gem-click-game-motion.js" />
</svg>
