<svg xmlns="http://www.w3.org/2000/svg" xml:lang="en"
     xmlns:xlink="http://www.w3.org/1999/xlink"
     viewBox="0 0 1500 850" preserveAspectRatio="xMidYMin meet">
    <title>Image Map of Canada</title>
    <style>
        image { 
            opacity: 0.5;
            transition: 1s opacity;
        }
        image:hover, a:focus image {
            opacity: 1;
        }
    </style>
  <g id="Canada" transform="translate(-1000,-100)">
    <a xlink:href="http://www.hellobc.com/">
        <title>British Columbia</title>
        <clipPath id="bc-clipper">
             <path id="CA-BC" d="M1010.3 33.1c97.04 28.7 159.42 43.95 209.3 53.5 24.43 4.67 45.82 8.97 47.53 9.54 8.44 2.8 99.45 19.1 132.77 23.74 20.83 2.9 65.52 7.38 99.3 9.95s62.6 5.18 64 5.8c1.43.65 2.25 4.3 1.84 8.1-.4 3.8-2.76 44.6-5.22 90.63-2.46 46.04-5.28 97.14-6.27 113.56-10.8 179.27-12.24 219.53-8.38 232.4 2.3 7.7 3.1 16.16 1.83 19.97-3.17 9.57 3.32 19.7 14.72 22.97 14.24 4.1 38.34 28.15 45.57 45.5 3.94 9.5 9.5 17.35 16.63 23.53 5.9 5.1 11.05 10.43 11.48 11.84.43 1.4 4.37 4.68 8.77 7.3 4.4 2.6 11.12 9.78 14.95 15.97 3.83 6.2 8.17 11.57 9.64 11.97 3.85 1.03 21.12 19.82 25.95 28.23 2.27 3.93 17.3 21.3 33.45 38.6 16.96 18.2 30.35 34.78 31.74 39.33 1.3 4.33 3.62 19.27 5.12 33.2 2.82 26.15 6.7 36.6 16.64 44.97 5.8 4.88 6.2 7 1.37 7.04-2.54.02-60.2-.53-105-1-15.44-.16-181.93-11.32-250.73-16.8-11.8-.95-25.3-1.94-29.98-2.22-10.86-.64-13.3-2.73-16.9-14.55-2-6.62-5.02-10.5-9.64-12.46-18.6-7.85-25.8-12.43-27.26-17.32-.9-2.96-2.6-5.08-3.83-4.7-6.22 1.85-19.27-9.08-24.4-20.44-8.3-18.4-21.84-32.5-41.55-43.28-17.65-9.64-17.87-9.9-20.06-22.6-1.8-10.4-2.96-12.6-6.1-11.67-2.15.64-4.56.37-5.36-.6-.8-.97-7.9-3.3-15.75-5.16-7.86-1.87-14.8-4.77-15.42-6.44-.62-1.66-2.3-5.2-3.72-7.83-3.5-6.5-5-11-12.87-38.6-6.57-23.04-6.6-23.92-.93-32.57 5.35-8.17 5.4-9.45.6-16.07-2.87-3.95-6.58-11.73-8.24-17.28-2.3-7.65-6.6-12.9-17.82-21.74-12.37-9.74-14.95-13.1-15.92-20.77-.64-5.03.6-11.84 2.76-15.13 4.35-6.64 2.6-10.5-11.47-25.25-7.08-7.42-9.7-13.47-18.17-41.88-9.56-32.1-9.73-33.48-5.3-41.67 2.5-4.67 9.98-12.63 16.6-17.7 16.34-12.45 26.9-29.96 23.97-39.7-3.07-10.24-1.15-23.93 5.23-37.27 4.77-9.97 4.84-12.88.6-26.94-4.27-14.28-5.64-16.2-14.4-20.28-11.13-5.2-35.15-29.55-44.4-45.05-5.45-9.12-6.54-14.7-8.07-41.43-1.56-27.28-2.6-32.48-8.88-44.52-3.92-7.5-11.07-24.4-15.88-37.54-4.82-13.14-10-26.16-11.5-28.93-1.52-2.78-4.76-9.34-7.2-14.6-2.46-5.24-12.2-22.9-21.7-39.26-9.46-16.37-18.56-32.15-20.2-35.1-1.88-3.36-6.97-5.78-13.6-6.48l9.72-4.83z"/>
        </clipPath>
        <image xlink:href="lynn-valley.jpg" 
               clip-path="url(#bc-clipper)" 
               aria-labelledby="bc-desc"
               width="1200" height="800" x="800" y="125">
            <desc id="bc-desc">
                Sunbeams filter between the branches of tall trees,
                to light up the ferns and moss on the ground of 
                Lynn Valley park.
            </desc>
        </image>
    </a>
    <a xlink:href="http://travelalberta.com/">
        <title>Alberta</title>
        <clipPath id="ab-clipper">
            <path id="CA-AB" d="M1932.54 926.55c-147.94 4.97-131.52 6.06-145.1-9.63l-11.46-13.23-2.93-29.98c-3.1-31.6-5.7-39.06-18.2-52.28l-26.58-28.15c-10.37-11-23.5-26.53-29.14-34.53-5.65-8-15.14-18.6-21.08-23.57-5.94-4.96-12.8-12.95-15.27-17.75-2.45-4.8-8.9-11.52-14.3-14.94-5.42-3.4-10.22-7.43-10.67-8.93-.43-1.5-4.2-5.35-8.36-8.6-4.38-3.38-10.78-12.8-15.18-22.35-4.8-10.4-10.9-19.13-16.5-23.63-4.88-3.93-11-9.92-13.57-13.3-2.6-3.4-9.57-7.6-15.5-9.33-10.62-3.1-16.73-11.5-12.13-16.68 1.15-1.3.16-8.77-2.2-16.6-4.16-13.9-1.85-67.16 18.07-415.6l1.8-31.5 62.37 1.83c34.32 1 86.2 1.66 115.33 1.46l114.02-.8c33.6-.23 61.45-.23 61.9 0 2.2 1.2 4.18 41.58 2.16 44.03-1.26 1.55-4.86 4.4-8 6.3-5.9 3.65-24.8 38.3-23.5 43.1.4 1.52 5.44 3.48 11.2 4.37 10.05 1.56 10.66 1.34 16.22-5.83 3.18-4.1 5.82-10.02 5.87-13.18.04-3.18.76-5.4 1.6-4.94.84.45 2.66 21.05 4.03 45.76 3.25 58.36 6.85 121.54 11.84 208.26l5.55 97.44c4.23 76.16 8.06 144.18 10.2 181.2 11.34 195.5 10.64 179.84 8.07 180.07-1.03.08-19.28.74-40.56 1.45z" />
        </clipPath>
        <image xlink:href="lake-louise.jpg"
               clip-path="url(#ab-clipper)"
               aria-labelledby="ab-desc"
               width="1024" height="768" x="1300" y="150">
            <desc id="ab-desc">
                Canoeists on Lake Louise are dwarfed
                by the Rocky Mountains rising up beside them.
            </desc>
        </image>
    </a>
    <a xlink:href="http://www.sasktourism.com/">
        <title>Saskatchewan</title>
        <clipPath id="sk-clipper">
            <path id="CA-SK" d="M2366.88 881.5c-.74-.36-10.8 1.33-22.37 3.76-11.54 2.44-24 4.86-27.68 5.4s-14.4 2.5-23.82 4.36c-9.43 1.84-20.14 3.82-23.8 4.38-3.68.56-14.4 2.5-23.84 4.33-9.44 1.8-47.3 5.44-84.13 8.05-36.84 2.62-68.8 4.9-71.06 5.1-12.4 1-19.42 1.5-35.55 2.47-9.8.6-20.25 1.4-23.2 1.74-2.97.35-15 1.27-26.7 2.05-17.3 1.16-21.3.56-21.26-3.18.04-4.3-4.67-93.07-5.42-102.07-.2-2.24-1.22-20.15-2.3-39.8-1.08-19.63-3.03-54.22-4.35-76.86-1.32-22.64-3.76-66.5-5.42-97.48-1.66-30.98-3.25-58.76-3.53-61.73-.28-2.98-1.36-20.87-2.4-39.76-1.06-18.9-3.25-57.83-4.9-86.5-1.63-28.7-3.93-69.47-5.1-90.6l-4.43-80.12-2.32-41.67 13.58-2.88c7.47-1.6 19.5-3.73 26.73-4.76 7.24-1.03 21.78-5.62 32.33-10.2 18.1-7.86 20.17-8.2 36.84-6.02 16.47 2.15 22.77.78 21.15-4.62-.86-2.87-63.23-13.03-77.8-12.66-6.1.15-13.67 1.05-16.84 2-3.17.94-8.76.1-12.42-1.87-7.35-3.95-15.03-2.6-21.4 3.73-4.9 4.88-5.27 4.08-6.8-14.78-.87-10.88-.12-13.9 3.5-13.94 4.1-.07 23.33-1.78 41.4-3.7 3.62-.37 9.03-.9 12.02-1.16 9.1-.77 121.54-12 128.76-12.85 3.7-.43 21.4-2.2 39.3-3.9 17.92-1.73 37.32-4.07 43.12-5.23 10.14-2 10.62-1.77 12.78 6.82 1.24 4.9 5.7 31.13 9.9 58.27 4.2 27.15 8.66 55.34 9.88 62.65 2.2 13.03 1.07 20.62-3.22 21.9-3.93 1.18-14.15 22.8-15.07 31.87-.67 6.6.45 10.9 4.3 16.56 11.13 16.37 12.8 25.52 6.74 37.18-3.9 7.57-4.62 11.75-2.3 13.8 2.68 2.4 4.44 1.2 9.36-6.32 3.33-5.1 7.77-9.77 9.85-10.4 3.85-1.15 6.22 6.93 17.34 59 1.7 7.94 5.54 25 8.54 37.92 3 12.92 6.53 28.82 7.85 35.34 1.33 6.5 5.18 23.57 8.57 37.92 3.4 14.33 6.93 30.22 7.86 35.32.93 5.1 4.77 22.16 8.54 37.92 3.77 15.76 7.3 31.66 7.88 35.33.56 3.68 4.38 20.75 8.5 37.94 4.1 17.2 7.67 33.08 7.93 35.3.25 2.23 3.95 18.7 8.2 36.63 4.28 17.9 7.97 34.4 8.22 36.62.25 2.2 3.94 18.7 8.2 36.6 4.27 17.92 8 34.74 8.27 37.4s2.5 12.33 4.95 21.54c3.97 14.94 3 20.8-2.94 17.87z"/>
        </clipPath>
        <image xlink:href="barn.jpg" 
               clip-path="url(#sk-clipper)"
               aria-labelledby="sk-desc"
               width="1700" height="1200" x="1350" y="115" >
            <desc id="sk-desc">
                A faded barn with a sagging, lichen-covered roof 
                is the only landmark in site, rising above flat
                golden prairie under bright blue sky.
            </desc>
        </image>
    </a>
    <!-- and more clipped images for other provinces -->
  </g>
</svg>