<svg xmlns="http://www.w3.org/2000/svg" xml:lang="en" 
     xmlns:xlink="http://www.w3.org/1999/xlink"
     width="400px" height="400px" viewBox="0 0 200 200" >
    <title>Card Suit Icons</title>
    
    <symbol viewBox="0 0 20 20" id="diamond" 
         style="overflow: visible">                             
        <title>Diamond</title>
        <path d="M3,10L10,0 17,10 10,20Z 
                 M9,11L10,18V10H15L11,9 10,2V10H5Z" />
    </symbol>
    <use xlink:href="#diamond" 
         x="0" y="0" width="100" height="100" />      <!--1-->
    
    <symbol viewBox="0 0 20 20" id="club" 
         style="overflow: visible">  
        <title>Club</title>
        <path d="M9,15.5A5,5 0 1 1 5.5, 7.5 
                 A5,5 0 1 1 14.5, 7.5A5,5 0 1 1 11, 15.5
                 Q11,20 13,20H7Q9,20 9,15.5Z" />
    </symbol>
    <use xlink:href="#club" 
         x="100" y="0" width="100" height="100" />

    <symbol viewBox="0 0 20 20" id="spade" 
         style="overflow: visible">
        <title>Spade</title>
        <path d="M9,15C9,20 0,21 0,16S6,9 10,0C14,9 20,11 20,16
                 S11,20 11,15Q11,20 13,20H7Q9,20 9,15Z" />
    </symbol>
    <use xlink:href="#spade" 
         x="0" y="100" width="100" height="100" />

    <symbol viewBox="0 0 20 20" id="heart"
         style="overflow: visible">
        <title>Heart</title>
        <path d="M10,6 Q10,0 15,0T20,6Q20,10 15,14 
                 T10,20Q10,18 5,14T0,6Q0,0 5,0T10,6Z" />
    </symbol>
    <use xlink:href="#heart" 
         x="100" y="100" width="100" height="100" />
</svg>