<svg id="Layer_1" xmlns="http://www.w3.org/2000/svg" xml:lang="en" xmlns:xlink="http://www.w3.org/1999/xlink" width="431.979" height="322.484"
	 viewBox="0 0 431.979 322.484" overflow="visible" enable-background="new 0 0 431.979 322.484" xml:space="preserve">
<title>Drupe Fruit Diagram, with a pre-defined view</title>
<desc>By LadyOfHats, <a href="https://commons.wikimedia.org/wiki/File:Drupe_fruit_diagram-en.svg">from Wikimedia Commons</a></desc>
<view id="cropped" viewBox="20,10,300,300" />
<style>
#cropped:target ~ g .hide-when-cropped {
    display: none;
}
</style>
<g>
<rect fill="#FFFFFF" width="431.979" height="322.484"/>
<path fill="#EAC428" d="M288.337,241.579c-44.153,63.623-133.65,77.931-199.897,31.955C22.194,227.561,4.285,138.714,48.438,75.092
	c17.113-24.66,42.244-43,70.812-52.12c12.04-3.845,26.141-8.342,38.105-4.56c15.035,4.754,27.138,15.974,43.281,19.341
	c24.074,5.021,42.108-0.962,62.414,16.981c17.598,15.552,31.371,35.523,39.811,57.422
	C319.296,154.799,314.521,203.848,288.337,241.579z"/>
<path fill="#EDD058" d="M279.018,230.114c-22.041,19.381-52.645,29.617-79.128,40.701c-18.705,7.829-38.322,15.904-58.621,18.001
	c-12.461,1.288-24.502-4.153-35.871-8.69c-6.762-2.7-14.44-5.475-20.005-10.317c-3.757-3.27-16.735-11.3-15.766-16.97
	c0.932-5.456,14.605-10.751,18.69-13.644c13.568-9.609,26.399-21.788,39.228-32.328c12.361-10.155,27.617-9.216,41.187-15.373
	c12.112-5.494,23.086-14.04,30.815-24.918c3.343-4.705,5.112-8.438,5.756-14.02c0.736-6.372-1.309-13.756,2.524-19.394
	c7.648-11.247,20.702-19.467,31.442-27.676c8.625-6.593,17.276-13.211,25.285-20.501c3.839-3.495,7.671-8.585,12.853-9.825
	c13.121,10.334,17.125,23.209,24.293,37.822c9.314,18.986,7.519,40.232,8.463,60.872c0.218,4.75-1.938,9.211-3.354,13.673
	c-2.755,8.679-6.972,16.92-11.951,24.523C290.382,218.884,285.018,224.837,279.018,230.114z"/>
<linearGradient id="XMLID_5_" gradientUnits="userSpaceOnUse" x1="24.1528" y1="158.2427" x2="312.4839" y2="158.2427">
	<stop  offset="0.0056" style="stop-color:#FFBF00"/>
	<stop  offset="1" style="stop-color:#FF4000"/>
</linearGradient>
<path fill="url(#XMLID_5_)" d="M289.526,239.25c-43.237,64.248-132.521,79.835-199.418,34.814
	C23.21,229.043,4.03,140.463,47.268,76.215c16.758-24.902,41.623-43.6,70.057-53.129c11.984-4.017,26.02-8.715,38.037-5.105
	c15.101,4.538,27.364,15.583,43.555,18.72c24.142,4.675,42.088-1.565,62.649,16.086c17.818,15.297,31.876,35.069,40.629,56.846
	C319.24,152.035,315.167,201.147,289.526,239.25z M281.72,214.435c11.518-11.253,26.383-28.647,27.426-45.235
	c1.31-20.814-1.516-39.339-9.325-58.767c-8.6-21.396-22.412-40.825-39.92-55.854c-20.203-17.344-37.837-11.213-61.56-15.806
	c-15.908-3.081-27.958-13.935-42.797-18.394c-28.4-8.53-59.338,16.122-78.946,33.234c-8.208,7.164-17.083,15.207-21.352,25.472
	c-4.567,10.981-6.975,22.726-10.004,34.252c-8.413,32.01-9.678,59.298-0.785,91.402c2.162,7.804,4.83,15.472,7.869,22.795
	c8.053,19.41,21.5,32.618,39.102,44.464c19.672,13.24,44.977,14.897,67.655,10.123c29.6-6.233,58.894-18.843,84.328-35.111
	c5.058-3.235,9.833-7.194,14.517-10.934c2.551-2.036,5.05-4.151,7.51-6.32C271.024,224.831,276.406,219.626,281.72,214.435z"/>
<path opacity="0.37" fill="#FFDFA6" d="M124.769,82.672c3.792,4.021,8.609,8.58,13.228,8.342
	c1.814-10.479,0.115-20.213,0.115-30.712c0-5.991,0.046-11.987-0.018-17.978c1.79,9.302,3.182,31.001,11.468,37.338
	c9.408,7.194,9.82-18.699,12.511-24.355c1.603,5.273-1.294,12.262,1.134,17.304c5.634,11.699,16.669-22.246,18.336-25.596
	c-0.121,5.428-5.406,46.77,8.497,42.434c6.299-1.963,14.884-24.292,16.275-30.295c0.455,6.841-3.179,13.762-4.011,20.491
	c-0.244,1.974-0.703,7.249,1.148,8.65c3.391,2.566,6.519-2.858,9.975-3.84c-6.288,7.136-7.933,20.399,4.02,20.521
	c11.22,0.115,16.767-5.45,25.662-10.511c1.758-0.999,18.445-10.572,19.756-8.52c2.173,3.41-10.921,8.354-7.622,14.214
	c-6.691,5.485-12.969,11.891-17.521,19.321c-1.32,2.155-3.281,9.884-0.965,11.906c2.342,2.045,13.564-1.981,16.568-2.593
	c-2.392,0.486-8.928,1.84-9.848,4.63c-2.261,6.854,12.949,4.163,16.266,3.742c12.321-1.56,23.998-6.056,36.524-6.858
	c-6.482,2.785-12.305,4.245-19.154,6.108c-9.465,2.573-32.932,6.53-37.422,16.102c2.46,0.159,4.787-0.612,6.882-0.026
	c-2.39,4.227-10.159,9.264-7.038,15.377c2.138,4.186,13.662,8.757,17.566,11.431c3.58,2.451,6.592,4.962,10.791,6.282
	c-7.846,0.006-13.854-1.863-21.245-4.466c-2.444-0.86-24.865-12.402-19.729-0.336c2.438,5.728,13.573,8.755,18.566,11.948
	c-5.046-3.219-19.129-7.756-22.938-0.288c-3.019,5.929,3.787,11.58,6.833,15.605c4.273,5.646,6.265,13.384,10.474,18.72
	c-1.889-2.395-3.113-5.17-4.839-7.679c-2.698-3.926-6.404-6.706-9.805-9.954c-1.835-1.752-5.327-7.646-7.757-8.204
	c-6.13-1.403-5.902,7.902-5.06,12.033c1.883,9.241,6.747,17.864,7.755,27.34c-6.404-7.005-4.308-19.413-9.22-27.374
	c-2.063-3.344-8.869-6.78-10.972-2.667c-2.518,4.929,7.325,19.309,6.875,25.79c-1.154-6.218-6.71-25.721-15.651-22.121
	c-1.661,11.286,4.677,24.787,5.645,35.827c-0.743-8.478-3.027-18.526-7.481-25.869c-4.948-8.159-10.352-3.994-12.712,4.201
	c-3.118,10.827,3.881,21.968-0.552,33.069c0.932-10.888-2.242-21.388-2.878-32.16c-0.457-7.736-2.12-11.754-8.359-3.455
	c-6.133,8.157-5.118,20.476-7.739,30.245c0.111-2.613,1.355-31.814,2.35-32.002c-7.726,1.459-10.473,11.956-13.751,17.989
	c2.294-4.524,2.488-12.229-0.692-16.466c-7.849,1.617-14.546,19.439-17.707,25.791c1.969-8.976,15.272-32.486-1.927-35.782
	c-10.645-2.04-23.467,10.581-30.885,16.689c5.863-4.828,21.845-19.479,17.38-28.48c-3.346-6.746-10.777-3.333-15.821-1.514
	c-5.419,1.955-17.402,4.542-21.311,8.733c6.258-6.712,39.991-15.487,29.307-29.59c-3.995-5.272-16.393-2.681-22.018-2.079
	c-8.137,0.869-16.425,2.672-24.318,4.651c5.218-4.264,17.07-6.234,23.838-7.72c5.527-1.213,21.788-2.606,25.165-8.257
	c5.646-9.448-23.284-3.137-27.601-4.177c3.427-4.578,18.97-2.551,24.127-5.405c7.613-4.215,0.873-8.283-4.778-10.526
	c-12.797-5.078-28.29-3.17-40.618-8.851c10.301-0.386,20.681,1.474,31.302,0.574c3.206-0.271,12.414,0.632,14.545-2.971
	c5.664-9.572-25.089-15.038-28.228-18.332c7.692,1.624,18.764,3.957,26.656,3.797c21.521-0.439-8.22-20.916-8.345-27.583
	c0.015,0.779,12.985,7.395,14.287,8.043c5.286,2.633,10.116,4.942,12.299-1.98c4.507-14.29-15.377-29.611-18.143-42.838
	c7.323,3.758,13.197,15.423,19.036,21.411C122.269,79.957,123.458,81.283,124.769,82.672z"/>
<path fill="#ED9E2B" d="M178.608,94.299c-2.413,11.582,11.933,3.728,16.087,3.852c-0.765,4.382-0.53,9.203,2.716,12.461
	c0.625,0.628,10.408,4.518,10.309,5.156c-0.605,3.872-2.736,6.783-2.831,11.092c10.159-2.324,17.406-12.107,27.388-14.918
	c-4.5,7.087-15.936,13.11-17.015,22.05c-0.5,4.156,4.586,5.988,4.617,9.532c0.053,5.834-5.492,3.279-8.092,7.581
	c3.753,5.288,10.587,2.12,14.971,3.589c-4.208,4.384-10.41,6.064-11.371,12.929c-1.632,0.174-2.287,1.354-3.6,1.815
	c1.335,3.933,4.29,6.311,7.233,9.039c-2.492,1.571-5.614,0.49-7.947,1.688c-5.159,2.647-2.576,2.539-2.604,6.743
	c-0.005,0.772,0.141,3.976-0.038,4.444c-0.897,2.343-2.171,1.079-3.525,3.027c-1.5,2.159-3.033,4.809-4.733,7.007
	c-5.544-4.924-7.699,7.192-10.726,10.133c-3.267-2.702-6.459-1.255-8.981,1.344c-4.59-5.709-7.382,6.02-10.919,6.963
	c-5.784,1.543-7.808-3.327-11.7,5.141c-2.157-3.909-7.333-1.868-9.019,1.511c-2.438-4.209-3.74-12.968-10.709-7.298
	c-1.544,1.256-2.741-7.384-2.993-7.81c-1.313-2.223-4.74-4.503-6.972-5.73c-0.854,0.563-2.011,0.489-2.867,1.072
	c-0.284-0.646-0.773-1.354-1.095-2.046c-1.296,0.598-2.375-0.057-3.582,1.338c0.621-2.917,2.171-5.916,2.035-8.882
	c-0.115-2.496-2.157-4.584-2.169-7.14c-0.021-4.155,3.23-5.607-0.154-9.797c-3.311-4.097-8.682-1.541-4.421-6.917
	c2.23-2.813,7.445-2.952,7.534-7.003c0.072-3.249-4.086-5.789-6.709-6.289c2.758-8.918,14.894-10.934,8.165-21.78
	c2.46-2.338,5.492-11.413-0.481-11.659c12.26,0.487,11.556-11.017,10.015-19.252c9.016,6.764,11.165-5.335,14.422-9.77
	c5.806,6.3,15.025,2.636,21.451,0.557C173.244,97.117,175.533,94.406,178.608,94.299z"/>
<g>
	<path fill="#5A3D1C" d="M166.056,104.305c-4.452,1.886-9.169-1.808-12.978-0.048c-2.542,1.175-2.401,4.621-4.71,6.226
		c-5.091,3.537-7.563-0.841-8.914,7.958c-0.236,1.543,1.008,4.183,0.312,5.529c-0.636,1.228-3.03,1.377-3.89,2.637
		c-2.817,4.124-1.218,6.231-2.369,10.601c-0.647,2.453-3.588,3.503-4.248,5.833c-0.519,1.828,1.186,3.385,0.793,5.269
		c-0.577,2.763-3.681,5.233-3.796,7.984c-0.124,2.933,2.56,4.148,3.071,7.04c0.779,4.419-3.118,7.483-3.719,11.683
		c-0.457,3.208,1.87,4.558,3.53,7.235c-7.229,2.347-6.589,5.958-3.007,10.899c3.186,4.397,4.184,10.197,7.514,14.398
		c1.116,1.407,9.304,5.838,9.335,6.032c2.335,14.679,26.905,5.705,33.248-0.639c1.995-1.998,2.987-4.845,4.953-6.52
		c1.671-1.422,5.382-2.178,7.468-3.403c3.64-2.135,9.691-4.788,8.214-9.936c9.625-0.08,9.45-5.829,7.844-12.818
		c1.895-0.808,7.686-3.167,8.08-5.465c0.639-3.717-7.025-3.511-5.437-8.233c1.369-4.063,8.663-2.166,9.141-6.941
		c0.41-4.112-12.608-11.782-3.802-14.347c-1.697-4.882-5.705-7.017-8.652-10.945c-4.481-5.975,0.465-11.026-2.118-16.734
		c-2.2-4.855-8.98-4.491-8.31-10.999c0.339-3.301-9.289-0.976-10.482-1.165c-3.9-0.614-5.474-3.82-9.111-4.885
		C170.127,99.413,168.994,103.06,166.056,104.305z"/>
</g>
<path fill="#DBD5BA" d="M129.698,178.865c0.17,0.281,0.333,0.525,0.476,0.706c0.367,0.465,3.783,2.742,3.761,2.574
	c0.584,4.402-6.802,2.767-4.504,8.568c0.832,2.1,2.872,2.765,3.726,4.61c1.125,2.435-0.442,5.429,2.229,6.348
	c1.581,0.543,4.38-1.742,5.906-2.136c4.476-1.154,3.401,0.951,6.4,2.964c7.29,4.894,14.488-4.146,20.071-8.07
	c5.445-3.827,11.862-5.198,17.344-9.322c2.662-2.002,6.045-3.5,8.17-6.088c2.592-3.156,2.07-5.949-2.487-4.165
	c0.263-1.455,3.088-5.313,4.998-5.589c4.286-0.62,2.68,2.804,5.818-0.916c3.003-3.56,4.926-9.344,5.447-13.9
	c0.47-4.105-0.895-3.009-2.066-6.093c-1.046-2.752,1.169-5.101,0.102-8.115c-2.098-5.933-8.039-7.801-6.854-15.03
	c0.379-2.313,1.356-4.291,0.446-6.673c-1.321-3.457-4.073-2.1-6.094-4.428c-1.226-1.414-1.628-4.036-3.205-5.063
	c-1.968-1.282-5.092-0.049-7.341-0.646c-4.323-1.146-6.432-6-11.236-4.395c-4.562,1.524-5.069,4.377-10.728,3.587
	c-1.392-0.194-4.793-1.705-6.014-1.027c-2.368,1.313-2.353,5.625-4.528,6.947c-2.677,1.626-5.882-0.822-7.648,2.889
	c-1.522,3.199,1.736,6.731-0.446,9.94c-0.741,1.088-3.19,0.093-4.282,1.532c-1.332,1.757-0.146,3.429-0.582,5.297
	c-0.439,1.875-0.114,3.555-1.006,5.345c-0.708,1.422-3.558,1.778-3.973,3.035c-1.032,3.114,0.87,6.413,0.048,9.632
	c-0.665,2.601-2.532,4.132-1.297,7.015c1.342,3.133,2.027,6.509,0.667,9.756c-1.126,2.688-3.252,4.292-2.764,7.53
	C128.375,176.315,129.082,177.841,129.698,178.865z"/>
<linearGradient id="XMLID_6_" gradientUnits="userSpaceOnUse" x1="148.8716" y1="137.4766" x2="171.3455" y2="164.0367">
	<stop  offset="0.0056" style="stop-color:#E8DBA6"/>
	<stop  offset="1" style="stop-color:#D8C26A"/>
</linearGradient>
<path fill="url(#XMLID_6_)" d="M182.713,175.205c7.401-7.622,12.693-16.762,10.961-27.983c-2.166-14.032-8.057-35.65-27.373-31.919
	c-12.701,2.454-20.985,21.812-23.563,32.928c-2.843,12.262-3.479,26.079,0.842,38.017c0.981,2.712,2.422,6.873,5.2,7.979
	c3.152,1.254,7.405-0.782,10.233-2.008c6.078-2.634,11.804-6.571,16.896-10.788C178.274,179.471,180.582,177.401,182.713,175.205z"
	/>
<path fill="#D6CA9A" d="M183.479,175.588c7.401-7.623,12.693-16.763,10.961-27.984c-1.023-6.633-2.385-13.383-5.392-19.438
	c-1.539-3.098-3.528-6.068-6.106-8.4c-3.367-3.046-4.773-1.107-7.283,1.763c-2.493,2.848-5.638,5.5-8.91,7.462
	c0.191,1.85,2.269,2.652,3.075,4.156c0.935,1.741,0.469,4.289,0.665,6.247c0.791,7.922,1.358,16.084,0.644,24.035
	c-0.377,4.201-0.342,8.439-0.94,12.619c-0.394,2.755-2.555,7.021,1.597,7.425C176.412,183.923,180.622,178.532,183.479,175.588z"/>
<path fill="#8B5C29" d="M133.004,204.53c3.572,3.279,6.458-2.25,10.024-2.08c-0.622,1.038-0.427,2.471-0.751,3.535
	c0.582-0.004,1.308,0.195,1.885,0.153c-0.21,0.819-1.534,3.39-1.35,4.124c0.701,2.791,2.316,2.158,3.51,0.382
	c0.542-0.806-1.627-2.297,0.475-3.956c1.613-1.273,3.979-0.06,5.976-0.104c5.27-0.116,7.054-2.479,10.771-5.411
	c0.904-0.714,1.622-2.272,3.001-2.11c0.865,0.101,3.185,3.218,2.723,3.771c1.456-1.738,4.149-6.158-0.275-5.683
	c4.242-4.815,9.826-4.956,15.315-7.424c3.955-1.777,19.48-10.994,12.085-16.225c1.903-0.771,3.017,0.572,4.645-0.108
	c3.783-1.579,4.85-5.258,5.713-8.859c1.014-4.229,3.349-7.831,4.364-12.061c-0.111,0.464,8.409,8.557,2.696,8.586
	c-0.798-2.168-0.28-5.797-3.626-4.952c3.922,3.555-4.657,8.256-4.046,11.646c0.53,2.947,6.18,2.648,6.458,5.733
	c0.281,3.114-4.72,4.581-7.035,4.376c1.151-1.052,0.486-1.62,0.917-2.87c-4.132-2.162-5.272,1.44-3.924,3.957
	c0.82,1.529,2.901,1.84,3.271,4.676c0.312,2.382-0.349,4.984-2.197,6.613c-1.696,1.494-5.994,3.136-7.296-0.127
	c-0.834-2.089,4.893-6.721-0.851-6.983c0.789,3.069-3.143,4.987-3.15,7.622c-0.015,4.696,2.993,0.675,4.927,2.646
	c4.218,4.298-9.487,10.511-12.587,10.034c0.139-0.673-0.271-1.711-0.144-2.399c-0.7,0.105-1.755-0.302-2.449-0.154
	c0.455-1.193,0.795-2.655,0.903-3.958c-2.933,0.405-5.116,3.228-5.966,5.879c7.538,1.466-1.13,11.642-3.556,8.776
	c-1.838-2.172,4.325-3.939-0.717-4.102c-2.502-0.081-11.168,4.966-12.66,6.683c1.599,0.098,7.896-3.148,8.622-1.489
	c0.654,1.493-2.996,3.404-4.005,3.98c-3.482,1.989-8.798,4.483-12.897,2.986c-1.088-0.397-6.786-6.466-6.572-6.604
	c-0.625,0.403-0.842,0.999-1.026,1.73c-0.477,1.89,2.801,2.929,2.006,5.536c-2.72-0.44-3.603-7.532-6.057-9.253
	c-1.76-1.235-11.266-2.755-6.637-6.514"/>
<path fill="#EDCF8C" stroke="#D59758" stroke-width="0.3831" d="M170.745,126.069c1.989-1.315,3.927-2.68,5.425-4.591
	c1.049-1.339,1.706-3.08,2.998-4.18c0.701,0.981,0.346,4.222,0.082,5.507c-0.261,1.265-0.795,2.518-1.546,3.575
	c-1.529,2.154-3.604,3.729-5.65,5.364c0.645,1.426,0.351,2.618,0.338,4.155c-0.042,5.029,0.635,10.241,0.977,15.268
	c0.435,6.397-0.26,12.485-0.261,18.847c0,3.014-0.63,5.963-0.987,8.943c-0.178,1.483-0.469,3.014-0.603,4.484
	c-0.111,1.224-0.103,1.757-1.239,2.484c-1.596,1.023-3.449,1.836-4.942,2.984c-1.302,1.002-2.711,1.813-4.227,2.496
	c-2.403,1.083-4.862,2.254-7.466,2.687c-1.229,0.203-2.791,0.229-4.015-0.001c-0.682-0.128-1.899-0.167-2.399-0.693
	c0.558-0.684,1.58-1.144,2.38-1.604c1.527-0.881,3.019-1.827,4.579-2.688c1.298-0.716,2.566-1.441,3.846-2.193
	c1.162-0.683,2.388-1.25,3.547-1.936c1.113-0.658,2.019-1.54,3.135-2.174c0.647,0.5,1.575,0.857,2.321,1.192
	c-0.778-0.298-1.65-0.582-2.474-0.84c-0.142-2.762-0.33-5.514-0.146-8.308c0.557-8.461,0.446-16.945,0.344-25.418
	c-0.041-3.392-0.03-6.783,0.053-10.173c0.074-2.987,0.934-5.829,0.924-8.765c1.205,0.385,2.938,0.708,4.224,0.752
	c-1.359-0.747-3.056-0.556-4.203-1.576C167.292,128.293,169.037,127.199,170.745,126.069z"/>
<path fill="none" stroke="#5A3D1C" stroke-width="0.7662" d="M182.979,175.466c7.4-7.623,12.693-16.763,10.961-27.984
	c-2.166-14.032-8.057-35.65-27.373-31.919c-12.701,2.454-20.985,21.812-23.563,32.928c-2.138,9.219-2.727,19.131-1.748,28.538
	c0.375,3.601,1.83,6.939,3.194,10.261c1.483,3.609,1.228,6.527,5.525,7.315c3.049,0.559,6.583-0.948,9.304-2.126
	c6.079-2.634,11.805-6.572,16.896-10.789C178.541,179.732,180.848,177.662,182.979,175.466z"/>
<g>
	<path opacity="0.27" fill="#8E6D54" d="M194.995,181.125c0.146-0.197,0.293-0.398,0.437-0.603c1.481-2.097,0.625-4.622,1.968-6.429
		c0.878-1.184,3.335-1.407,4.585-2.126c2.447-1.404,3.324-4.238,4.43-6.769c2.342-5.357,3.298-10.019,3.117-15.744
		c-6.25-1.83,7.157-5.34,0.992-8.143c-2.138-0.972-13.212,10.725-14.698,12.714c-4.582,6.135-10.828,11.052-16.427,16.229
		c-2.304,2.13-6.375,4.472-7.059,7.752c-0.355,1.711,0.93,5.409,0.006,6.876c-1.04,1.65-6.082-1.328-7.853-2.037
		c-1.988,2.541-5.188,3.246-7.871,4.753c-2.91,1.633-5.63,3.587-8.578,5.155c-1.226,0.652-2.236,1.606-3.292,2.492
		c-2.755,2.316-6.413,3.379-9.515,5.175c-1.129,0.654-5.574,3.308-2.26,4.159c2.692,0.691,7.392-3.313,10.163-3.547
		c-1.595,0.135,2.294,4.018,2.503,4.164c1.706,1.185,4.958,1.646,6.944,1.495c5.156-0.39,7.687-4.232,11.419-7.104
		c3.146-2.419,7.14-4.768,10.882-6.156C182.815,190.492,189.847,188.003,194.995,181.125z"/>
	<path fill="#B78046" d="M182.646,175.392c3.956-4.131,7.409-8.912,9.382-14.318c1.048-2.872,3.976-12.701,1.243-15.125
		c-4.113,3.253-3.943,9.794-8.398,13.375c-1.645,1.322-3.347,2.737-5.054,3.943c-1.785,1.262-3.971,1.89-5.677,3.266
		c-1.615,1.303-1.605,2.828-1.808,4.868c-0.415,4.181-0.478,8.698-0.21,12.92c0.05,0.787,4.272-3.165,4.55-3.434
		C178.619,179.004,180.763,177.358,182.646,175.392z"/>
	<linearGradient id="XMLID_7_" gradientUnits="userSpaceOnUse" x1="188.7583" y1="165.2017" x2="175.9198" y2="147.5053">
		<stop  offset="0.0056" style="stop-color:#B78046"/>
		<stop  offset="1" style="stop-color:#5A3D1C"/>
	</linearGradient>
	<path fill="url(#XMLID_7_)" stroke="#5A3D1C" stroke-width="0.7662" d="M176.035,162.958c2.646-2.105,5.873-3.418,8.316-5.804
		c3.787-3.696,7.378-8.267,8.566-13.534c0.254-1.124-0.39-2.271,0.338-3.18c1.9-2.373,6.929-3.392,8.745-0.441
		c1.234,2.006-0.111,5.905-0.659,7.913c-0.307,1.124-5.808,15.459-6.241,15.206c-4.853-2.835-12.408-1.715-17.075,0.962
		c-7.876,4.517-4.228,13.738-6.408,20.967c1.26-3.809,1.183-9.235,1.233-13.277c0.041-3.285-0.269-5.654,2.258-8.015
		C175.408,163.476,175.717,163.211,176.035,162.958z"/>
</g>
<linearGradient id="XMLID_8_" gradientUnits="userSpaceOnUse" x1="151.4814" y1="191.8296" x2="142.3692" y2="157.4834">
	<stop  offset="0.0056" style="stop-color:#E8DBA6"/>
	<stop  offset="0.4176" style="stop-color:#E6DCA3"/>
	<stop  offset="0.6618" style="stop-color:#E1DD9B"/>
	<stop  offset="0.8616" style="stop-color:#D8E18D"/>
	<stop  offset="1" style="stop-color:#CEE47E"/>
</linearGradient>
<path fill="url(#XMLID_8_)" stroke="#D59758" stroke-width="0.3831" d="M146.971,156.341c0.18,0.393,0.325,0.781,0.415,1.063
	c0.996,3.117,1.006,6.28,0.572,9.489c-0.732,5.423-1.668,10.791-0.165,16.163c0.591,2.111,1.183,4.415,2.299,6.321
	c0.322,0.551,1.47,1.66,0.994,2.311c-0.447,0.611-2.374,0.794-3.008,0.507c-0.651-0.296-0.954-0.926-1.245-1.569
	c-0.645-1.424-1.199-2.94-1.727-4.41c-0.767-2.137-1.384-4.47-1.913-6.679c-0.551-2.302-0.694-4.511-0.883-6.855
	c-0.204-2.529-0.502-5.077-0.169-7.608c0.325-2.47,0.679-5.013,1.719-7.301c0.283-0.622,0.79-2.644,1.409-2.939
	C146.114,154.429,146.694,155.738,146.971,156.341z"/>
<g class="hide-when-cropped">
	<path d="M340.751,184.493h-3.915v3.645h4.38v1.095h-5.7v-10.11h5.475v1.095h-4.154v3.195h3.915V184.493z"/>
	<path d="M342.865,183.938c0-0.765-0.015-1.365-0.06-1.965h1.17l0.075,1.185h0.029c0.36-0.675,1.2-1.35,2.4-1.35
		c1.005,0,2.565,0.6,2.565,3.09v4.335h-1.32v-4.185c0-1.17-0.435-2.16-1.68-2.16c-0.855,0-1.53,0.615-1.771,1.35
		c-0.06,0.165-0.09,0.405-0.09,0.615v4.38h-1.32V183.938z"/>
	<path d="M357.461,178.583v8.775c0,0.645,0.015,1.38,0.06,1.875h-1.185l-0.061-1.26h-0.029c-0.405,0.81-1.275,1.425-2.46,1.425
		c-1.756,0-3.12-1.485-3.12-3.69c-0.016-2.43,1.5-3.9,3.255-3.9c1.125,0,1.875,0.525,2.189,1.095h0.03v-4.32H357.461z
		 M356.141,184.928c0-0.18-0.015-0.39-0.06-0.57c-0.195-0.825-0.915-1.515-1.905-1.515c-1.365,0-2.175,1.2-2.175,2.79
		c0,1.485,0.734,2.7,2.145,2.7c0.885,0,1.695-0.6,1.936-1.575c0.045-0.18,0.06-0.36,0.06-0.57V184.928z"/>
	<path d="M362.605,189.398c-1.95,0-3.479-1.44-3.479-3.735c0-2.43,1.604-3.855,3.6-3.855c2.085,0,3.495,1.515,3.495,3.72
		c0,2.7-1.875,3.87-3.6,3.87H362.605z M362.65,188.408c1.261,0,2.205-1.185,2.205-2.835c0-1.23-0.615-2.775-2.175-2.775
		c-1.545,0-2.22,1.44-2.22,2.82c0,1.59,0.899,2.79,2.175,2.79H362.65z"/>
	<path d="M373.075,188.979c-0.346,0.165-1.11,0.42-2.086,0.42c-2.189,0-3.614-1.485-3.614-3.72c0-2.235,1.529-3.87,3.899-3.87
		c0.78,0,1.471,0.195,1.83,0.39l-0.3,1.005c-0.315-0.165-0.81-0.345-1.53-0.345c-1.665,0-2.564,1.245-2.564,2.76
		c0,1.68,1.08,2.715,2.52,2.715c0.75,0,1.245-0.18,1.62-0.345L373.075,188.979z"/>
	<path d="M379.75,187.493c0,0.63,0.03,1.245,0.105,1.74h-1.186l-0.12-0.915h-0.045c-0.39,0.57-1.185,1.08-2.22,1.08
		c-1.47,0-2.22-1.035-2.22-2.085c0-1.755,1.56-2.715,4.364-2.7v-0.15c0-0.6-0.165-1.695-1.649-1.68c-0.69,0-1.396,0.195-1.905,0.54
		l-0.3-0.885c0.6-0.375,1.484-0.63,2.399-0.63c2.235,0,2.775,1.515,2.775,2.97V187.493z M378.46,185.528
		c-1.439-0.03-3.075,0.225-3.075,1.635c0,0.87,0.57,1.26,1.23,1.26c0.96,0,1.575-0.6,1.785-1.215c0.045-0.135,0.06-0.285,0.06-0.42
		V185.528z"/>
	<path d="M381.88,184.238c0-0.855-0.016-1.59-0.061-2.265h1.155l0.06,1.425h0.045c0.33-0.975,1.141-1.59,2.025-1.59
		c0.135,0,0.24,0.015,0.36,0.045v1.23c-0.15-0.015-0.285-0.03-0.465-0.03c-0.931,0-1.591,0.705-1.771,1.68
		c-0.03,0.195-0.045,0.405-0.045,0.63v3.87h-1.32L381.88,184.238z"/>
	<path d="M386.829,184.343c0-0.93-0.015-1.68-0.06-2.37h1.185l0.075,1.245h0.03c0.524-0.9,1.395-1.41,2.564-1.41
		c1.771,0,3.091,1.485,3.091,3.69c0,2.61-1.605,3.9-3.301,3.9c-0.975,0-1.8-0.42-2.234-1.14h-0.03v3.945h-1.32V184.343z
		 M388.149,186.278c0,0.18,0.015,0.375,0.06,0.54c0.226,0.915,1.035,1.545,1.966,1.545c1.395,0,2.205-1.14,2.205-2.805
		c0-1.455-0.75-2.7-2.146-2.7c-0.9,0-1.755,0.63-2.01,1.62c-0.03,0.18-0.075,0.375-0.075,0.54V186.278z"/>
</g>
<g class="hide-when-cropped">
	<path d="M341.084,226.827h-3.915v3.646h4.38v1.095h-5.7v-10.11h5.475v1.096h-4.155v3.194h3.915V226.827z"/>
	<path d="M343.814,224.307l1.035,1.545c0.27,0.42,0.495,0.78,0.735,1.185h0.045c0.239-0.42,0.479-0.795,0.734-1.185l1.005-1.545
		h1.44l-2.475,3.51l2.534,3.75h-1.5l-1.064-1.635c-0.285-0.42-0.525-0.825-0.78-1.261h-0.03c-0.239,0.436-0.494,0.825-0.765,1.261
		l-1.05,1.635h-1.455l2.58-3.705l-2.46-3.555H343.814z"/>
	<path d="M352.874,231.732c-1.95,0-3.479-1.44-3.479-3.735c0-2.43,1.604-3.854,3.6-3.854c2.085,0,3.495,1.515,3.495,3.72
		c0,2.7-1.875,3.87-3.6,3.87H352.874z M352.918,230.742c1.261,0,2.205-1.185,2.205-2.835c0-1.229-0.615-2.775-2.175-2.775
		c-1.545,0-2.22,1.44-2.22,2.82c0,1.59,0.899,2.79,2.175,2.79H352.918z"/>
	<path d="M363.344,231.312c-0.346,0.165-1.11,0.42-2.086,0.42c-2.189,0-3.614-1.485-3.614-3.72c0-2.235,1.529-3.87,3.899-3.87
		c0.78,0,1.471,0.194,1.83,0.39l-0.3,1.005c-0.315-0.165-0.81-0.345-1.53-0.345c-1.665,0-2.564,1.245-2.564,2.76
		c0,1.681,1.08,2.715,2.52,2.715c0.75,0,1.245-0.18,1.62-0.345L363.344,231.312z"/>
	<path d="M370.018,229.827c0,0.63,0.03,1.245,0.105,1.74h-1.186l-0.12-0.915h-0.045c-0.39,0.57-1.185,1.08-2.22,1.08
		c-1.47,0-2.22-1.035-2.22-2.085c0-1.755,1.56-2.715,4.364-2.7v-0.15c0-0.6-0.165-1.694-1.649-1.68c-0.69,0-1.396,0.195-1.905,0.54
		l-0.3-0.885c0.6-0.375,1.484-0.63,2.399-0.63c2.235,0,2.775,1.515,2.775,2.97V229.827z M368.728,227.862
		c-1.439-0.03-3.075,0.225-3.075,1.635c0,0.87,0.57,1.261,1.23,1.261c0.96,0,1.575-0.601,1.785-1.216
		c0.045-0.135,0.06-0.284,0.06-0.42V227.862z"/>
	<path d="M372.149,226.572c0-0.854-0.016-1.59-0.061-2.265h1.155l0.06,1.425h0.045c0.33-0.976,1.14-1.59,2.025-1.59
		c0.135,0,0.24,0.015,0.361,0.045v1.229c-0.15-0.015-0.285-0.029-0.465-0.029c-0.931,0-1.591,0.705-1.771,1.68
		c-0.03,0.195-0.045,0.405-0.045,0.63v3.87h-1.32L372.149,226.572z"/>
	<path d="M377.098,226.677c0-0.931-0.014-1.681-0.059-2.37h1.184l0.076,1.245h0.029c0.525-0.9,1.395-1.41,2.564-1.41
		c1.771,0,3.092,1.484,3.092,3.689c0,2.61-1.605,3.9-3.301,3.9c-0.975,0-1.801-0.42-2.234-1.14h-0.031v3.944h-1.32V226.677z
		 M378.418,228.612c0,0.18,0.016,0.375,0.061,0.54c0.225,0.915,1.035,1.545,1.965,1.545c1.395,0,2.205-1.14,2.205-2.805
		c0-1.455-0.75-2.7-2.145-2.7c-0.9,0-1.756,0.63-2.01,1.62c-0.031,0.18-0.076,0.375-0.076,0.54V228.612z"/>
</g>
<g class="hide-when-cropped">
	<path d="M344.051,206.127c-0.075-1.409-0.165-3.12-0.165-4.364h-0.03c-0.359,1.17-0.765,2.444-1.274,3.84l-1.785,4.905h-0.99
		l-1.65-4.815c-0.479-1.44-0.87-2.73-1.154-3.93h-0.03c-0.03,1.26-0.105,2.939-0.195,4.47l-0.27,4.335h-1.245l0.705-10.11h1.665
		l1.725,4.891c0.42,1.245,0.75,2.354,1.021,3.404h0.029c0.271-1.02,0.631-2.13,1.08-3.404l1.801-4.891h1.665l0.63,10.11h-1.29
		L344.051,206.127z"/>
	<path d="M348.385,207.163c0.03,1.785,1.155,2.521,2.476,2.521c0.944,0,1.529-0.165,2.01-0.36l0.24,0.93
		c-0.465,0.21-1.275,0.466-2.431,0.466c-2.22,0-3.569-1.485-3.569-3.66c0-2.205,1.305-3.931,3.42-3.931
		c2.37,0,2.984,2.085,2.984,3.42c0,0.271-0.015,0.48-0.045,0.631L348.385,207.163z M352.24,206.218
		c0.015-0.825-0.345-2.146-1.815-2.146c-1.35,0-1.92,1.23-2.024,2.146H352.24z"/>
	<path d="M354.971,209.233c0.405,0.24,1.095,0.51,1.755,0.51c0.945,0,1.396-0.465,1.396-1.08c0-0.63-0.375-0.975-1.335-1.335
		c-1.32-0.479-1.936-1.185-1.936-2.055c0-1.17,0.96-2.13,2.505-2.13c0.735,0,1.38,0.194,1.771,0.45l-0.315,0.944
		c-0.285-0.165-0.81-0.42-1.484-0.42c-0.78,0-1.2,0.45-1.2,0.99c0,0.615,0.42,0.885,1.364,1.245
		c1.245,0.465,1.905,1.095,1.905,2.189c0,1.29-1.005,2.19-2.7,2.19c-0.795,0-1.529-0.21-2.04-0.51L354.971,209.233z"/>
	<path d="M364.045,210.733c-1.95,0-3.479-1.44-3.479-3.735c0-2.43,1.604-3.854,3.6-3.854c2.085,0,3.495,1.515,3.495,3.72
		c0,2.7-1.875,3.87-3.6,3.87H364.045z M364.09,209.743c1.261,0,2.205-1.185,2.205-2.835c0-1.229-0.615-2.775-2.175-2.775
		c-1.545,0-2.22,1.44-2.22,2.82c0,1.59,0.899,2.79,2.175,2.79H364.09z"/>
	<path d="M374.516,210.313c-0.346,0.165-1.11,0.42-2.086,0.42c-2.189,0-3.614-1.485-3.614-3.72c0-2.235,1.529-3.87,3.899-3.87
		c0.78,0,1.471,0.194,1.83,0.39l-0.3,1.005c-0.315-0.165-0.81-0.345-1.53-0.345c-1.665,0-2.564,1.245-2.564,2.76
		c0,1.681,1.08,2.715,2.52,2.715c0.75,0,1.245-0.18,1.62-0.345L374.516,210.313z"/>
	<path d="M381.189,208.828c0,0.63,0.03,1.245,0.105,1.74h-1.186l-0.12-0.915h-0.045c-0.39,0.57-1.185,1.08-2.22,1.08
		c-1.47,0-2.22-1.035-2.22-2.085c0-1.755,1.56-2.715,4.364-2.7v-0.15c0-0.6-0.165-1.694-1.649-1.68c-0.69,0-1.396,0.195-1.905,0.54
		l-0.3-0.885c0.6-0.375,1.484-0.63,2.399-0.63c2.235,0,2.775,1.515,2.775,2.97V208.828z M379.899,206.863
		c-1.439-0.03-3.075,0.225-3.075,1.635c0,0.87,0.57,1.261,1.23,1.261c0.96,0,1.575-0.601,1.785-1.216
		c0.045-0.135,0.06-0.284,0.06-0.42V206.863z"/>
	<path d="M383.32,205.573c0-0.854-0.016-1.59-0.061-2.265h1.155l0.06,1.425h0.045c0.33-0.976,1.141-1.59,2.025-1.59
		c0.135,0,0.24,0.015,0.36,0.045v1.229c-0.15-0.015-0.285-0.029-0.465-0.029c-0.931,0-1.591,0.705-1.771,1.68
		c-0.03,0.195-0.045,0.405-0.045,0.63v3.87h-1.32L383.32,205.573z"/>
	<path d="M388.27,205.678c0-0.931-0.015-1.681-0.06-2.37h1.185l0.075,1.245h0.03c0.524-0.9,1.395-1.41,2.564-1.41
		c1.771,0,3.091,1.484,3.091,3.689c0,2.61-1.605,3.9-3.301,3.9c-0.975,0-1.8-0.42-2.234-1.14h-0.03v3.944h-1.32V205.678z
		 M389.59,207.613c0,0.18,0.015,0.375,0.06,0.54c0.226,0.915,1.035,1.545,1.966,1.545c1.395,0,2.205-1.14,2.205-2.805
		c0-1.455-0.75-2.7-2.146-2.7c-0.9,0-1.755,0.63-2.01,1.62c-0.03,0.18-0.075,0.375-0.075,0.54V207.613z"/>
</g>
<g class="hide-when-cropped">
	<path fill="#FF7F00" d="M331.53,164.925c0.63-0.12,1.455-0.21,2.505-0.21c1.29,0,2.235,0.3,2.836,0.84
		c0.555,0.48,0.899,1.215,0.899,2.115c0,0.915-0.27,1.635-0.795,2.16c-0.689,0.735-1.815,1.11-3.09,1.11
		c-0.39,0-0.75-0.015-1.05-0.09v4.05h-1.306V164.925z M332.836,169.785c0.285,0.075,0.66,0.105,1.08,0.105
		c1.59,0,2.534-0.78,2.534-2.145c0-1.35-0.944-1.995-2.385-1.995c-0.569,0-1.005,0.06-1.229,0.105V169.785z"/>
	<path fill="#FF7F00" d="M339.841,171.495c0.03,1.785,1.155,2.521,2.476,2.521c0.944,0,1.529-0.165,2.01-0.36l0.24,0.93
		c-0.465,0.21-1.275,0.465-2.431,0.465c-2.22,0-3.569-1.485-3.569-3.66c0-2.205,1.305-3.93,3.42-3.93c2.37,0,2.984,2.085,2.984,3.42
		c0,0.27-0.015,0.48-0.045,0.63L339.841,171.495z M343.696,170.55c0.015-0.825-0.345-2.145-1.815-2.145
		c-1.35,0-1.92,1.23-2.024,2.145H343.696z"/>
	<path fill="#FF7F00" d="M346.621,169.905c0-0.855-0.016-1.59-0.061-2.265h1.155l0.06,1.425h0.045c0.33-0.975,1.141-1.59,2.025-1.59
		c0.135,0,0.24,0.015,0.36,0.045v1.23c-0.15-0.015-0.285-0.03-0.465-0.03c-0.931,0-1.591,0.705-1.771,1.68
		c-0.03,0.195-0.045,0.405-0.045,0.63v3.87h-1.32L346.621,169.905z"/>
	<path fill="#FF7F00" d="M352.2,166.305c-0.494,0-0.824-0.39-0.824-0.855c0-0.465,0.345-0.84,0.854-0.84s0.84,0.375,0.84,0.84
		c0,0.465-0.33,0.855-0.854,0.855H352.2z M351.57,174.9v-7.26h1.32v7.26H351.57z"/>
	<path fill="#FF7F00" d="M360.256,174.645c-0.346,0.165-1.11,0.42-2.086,0.42c-2.189,0-3.614-1.485-3.614-3.72
		c0-2.235,1.529-3.87,3.899-3.87c0.78,0,1.471,0.195,1.83,0.39l-0.3,1.005c-0.315-0.165-0.81-0.345-1.53-0.345
		c-1.665,0-2.564,1.245-2.564,2.76c0,1.68,1.08,2.715,2.52,2.715c0.75,0,1.245-0.18,1.62-0.345L360.256,174.645z"/>
	<path fill="#FF7F00" d="M366.931,173.16c0,0.63,0.03,1.245,0.105,1.74h-1.186l-0.12-0.915h-0.045c-0.39,0.57-1.185,1.08-2.22,1.08
		c-1.47,0-2.22-1.035-2.22-2.085c0-1.755,1.56-2.715,4.364-2.7v-0.15c0-0.6-0.165-1.695-1.649-1.68c-0.69,0-1.396,0.195-1.905,0.54
		l-0.3-0.885c0.6-0.375,1.484-0.63,2.399-0.63c2.235,0,2.775,1.515,2.775,2.97V173.16z M365.641,171.195
		c-1.439-0.03-3.075,0.225-3.075,1.635c0,0.87,0.57,1.26,1.23,1.26c0.96,0,1.575-0.6,1.785-1.215c0.045-0.135,0.06-0.285,0.06-0.42
		V171.195z"/>
	<path fill="#FF7F00" d="M369.061,169.905c0-0.855-0.016-1.59-0.061-2.265h1.155l0.06,1.425h0.045c0.33-0.975,1.141-1.59,2.025-1.59
		c0.135,0,0.24,0.015,0.36,0.045v1.23c-0.15-0.015-0.285-0.03-0.465-0.03c-0.931,0-1.591,0.705-1.771,1.68
		c-0.03,0.195-0.045,0.405-0.045,0.63v3.87h-1.32L369.061,169.905z"/>
	<path fill="#FF7F00" d="M374.01,170.01c0-0.93-0.015-1.68-0.06-2.37h1.185l0.075,1.245h0.03c0.524-0.9,1.395-1.41,2.564-1.41
		c1.771,0,3.091,1.485,3.091,3.69c0,2.61-1.605,3.9-3.301,3.9c-0.975,0-1.8-0.42-2.234-1.14h-0.03v3.945h-1.32V170.01z
		 M375.33,171.945c0,0.18,0.015,0.375,0.06,0.54c0.226,0.915,1.035,1.545,1.966,1.545c1.395,0,2.205-1.14,2.205-2.805
		c0-1.455-0.75-2.7-2.146-2.7c-0.9,0-1.755,0.63-2.01,1.62c-0.03,0.18-0.075,0.375-0.075,0.54V171.945z"/>
</g>
<g class="hide-when-cropped">
	<path fill="#00A33D" d="M332.199,65.477c0.585,0.375,1.426,0.66,2.325,0.66c1.335,0,2.115-0.69,2.115-1.725
		c0-0.93-0.54-1.485-1.905-1.995c-1.649-0.6-2.67-1.47-2.67-2.88c0-1.575,1.305-2.745,3.271-2.745c1.02,0,1.785,0.24,2.22,0.495
		l-0.36,1.065c-0.314-0.195-0.989-0.48-1.904-0.48c-1.381,0-1.905,0.825-1.905,1.515c0,0.945,0.615,1.41,2.01,1.95
		c1.71,0.675,2.565,1.485,2.565,2.97c0,1.56-1.141,2.925-3.525,2.925c-0.975,0-2.04-0.3-2.58-0.66L332.199,65.477z"/>
	<path fill="#00A33D" d="M340.555,63.662c0.03,1.785,1.155,2.521,2.476,2.521c0.944,0,1.529-0.165,2.01-0.36l0.24,0.93
		c-0.465,0.21-1.275,0.465-2.431,0.465c-2.22,0-3.569-1.485-3.569-3.66c0-2.205,1.305-3.93,3.42-3.93c2.37,0,2.984,2.085,2.984,3.42
		c0,0.27-0.015,0.48-0.045,0.63L340.555,63.662z M344.41,62.717c0.015-0.825-0.345-2.145-1.815-2.145c-1.35,0-1.92,1.23-2.024,2.145
		H344.41z"/>
	<path fill="#00A33D" d="M348.069,63.662c0.03,1.785,1.155,2.521,2.476,2.521c0.944,0,1.529-0.165,2.01-0.36l0.24,0.93
		c-0.465,0.21-1.275,0.465-2.431,0.465c-2.22,0-3.569-1.485-3.569-3.66c0-2.205,1.305-3.93,3.42-3.93c2.37,0,2.984,2.085,2.984,3.42
		c0,0.27-0.015,0.48-0.045,0.63L348.069,63.662z M351.925,62.717c0.015-0.825-0.345-2.145-1.815-2.145
		c-1.35,0-1.92,1.23-2.024,2.145H351.925z"/>
	<path fill="#00A33D" d="M361.104,56.417v8.775c0,0.645,0.015,1.38,0.06,1.875h-1.185l-0.061-1.26h-0.029
		c-0.405,0.81-1.275,1.425-2.46,1.425c-1.756,0-3.12-1.485-3.12-3.69c-0.016-2.43,1.5-3.9,3.255-3.9
		c1.125,0,1.875,0.525,2.189,1.095h0.03v-4.32H361.104z M359.784,62.762c0-0.18-0.015-0.39-0.06-0.57
		c-0.195-0.825-0.915-1.515-1.905-1.515c-1.365,0-2.175,1.2-2.175,2.79c0,1.485,0.734,2.7,2.145,2.7c0.885,0,1.695-0.6,1.936-1.575
		c0.045-0.18,0.06-0.36,0.06-0.57V62.762z"/>
</g>
<g class="hide-when-cropped">
	<path d="M336.032,126.977c0.585,0.375,1.426,0.66,2.325,0.66c1.335,0,2.115-0.69,2.115-1.725c0-0.93-0.54-1.485-1.905-1.995
		c-1.649-0.6-2.67-1.47-2.67-2.88c0-1.575,1.305-2.745,3.271-2.745c1.02,0,1.785,0.24,2.22,0.495l-0.36,1.065
		c-0.314-0.195-0.989-0.48-1.904-0.48c-1.381,0-1.905,0.825-1.905,1.515c0,0.945,0.615,1.41,2.01,1.95
		c1.71,0.675,2.565,1.485,2.565,2.97c0,1.56-1.141,2.925-3.525,2.925c-0.975,0-2.04-0.3-2.58-0.66L336.032,126.977z"/>
	<path d="M344.388,125.162c0.03,1.785,1.155,2.521,2.476,2.521c0.944,0,1.529-0.165,2.01-0.36l0.24,0.93
		c-0.465,0.21-1.275,0.465-2.431,0.465c-2.22,0-3.569-1.485-3.569-3.66c0-2.205,1.305-3.93,3.42-3.93c2.37,0,2.984,2.085,2.984,3.42
		c0,0.27-0.015,0.48-0.045,0.63L344.388,125.162z M348.243,124.217c0.015-0.825-0.345-2.145-1.815-2.145
		c-1.35,0-1.92,1.23-2.024,2.145H348.243z"/>
	<path d="M351.902,125.162c0.03,1.785,1.155,2.521,2.476,2.521c0.944,0,1.529-0.165,2.01-0.36l0.24,0.93
		c-0.465,0.21-1.275,0.465-2.431,0.465c-2.22,0-3.569-1.485-3.569-3.66c0-2.205,1.305-3.93,3.42-3.93c2.37,0,2.984,2.085,2.984,3.42
		c0,0.27-0.015,0.48-0.045,0.63L351.902,125.162z M355.758,124.217c0.015-0.825-0.345-2.145-1.815-2.145
		c-1.35,0-1.92,1.23-2.024,2.145H355.758z"/>
	<path d="M364.938,117.917v8.775c0,0.645,0.015,1.38,0.06,1.875h-1.185l-0.061-1.26h-0.029c-0.405,0.81-1.275,1.425-2.46,1.425
		c-1.756,0-3.12-1.485-3.12-3.69c-0.016-2.43,1.5-3.9,3.255-3.9c1.125,0,1.875,0.525,2.189,1.095h0.03v-4.32H364.938z
		 M363.617,124.262c0-0.18-0.015-0.39-0.06-0.57c-0.195-0.825-0.915-1.515-1.905-1.515c-1.365,0-2.175,1.2-2.175,2.79
		c0,1.485,0.734,2.7,2.145,2.7c0.885,0,1.695-0.6,1.936-1.575c0.045-0.18,0.06-0.36,0.06-0.57V124.262z"/>
	<path d="M375.482,128.312c-0.346,0.165-1.11,0.42-2.086,0.42c-2.189,0-3.614-1.485-3.614-3.72c0-2.235,1.529-3.87,3.899-3.87
		c0.78,0,1.471,0.195,1.83,0.39l-0.3,1.005c-0.315-0.165-0.81-0.345-1.53-0.345c-1.665,0-2.564,1.245-2.564,2.76
		c0,1.68,1.08,2.715,2.52,2.715c0.75,0,1.245-0.18,1.62-0.345L375.482,128.312z"/>
	<path d="M379.892,128.732c-1.95,0-3.479-1.44-3.479-3.735c0-2.43,1.604-3.855,3.6-3.855c2.085,0,3.495,1.515,3.495,3.72
		c0,2.7-1.875,3.87-3.6,3.87H379.892z M379.937,127.742c1.261,0,2.205-1.185,2.205-2.835c0-1.23-0.615-2.775-2.175-2.775
		c-1.545,0-2.22,1.44-2.22,2.82c0,1.59,0.899,2.79,2.175,2.79H379.937z"/>
	<path d="M390.287,126.827c0,0.63,0.03,1.245,0.105,1.74h-1.186l-0.12-0.915h-0.045c-0.39,0.57-1.185,1.08-2.22,1.08
		c-1.47,0-2.22-1.035-2.22-2.085c0-1.755,1.56-2.715,4.364-2.7v-0.15c0-0.6-0.165-1.695-1.649-1.68c-0.69,0-1.396,0.195-1.905,0.54
		l-0.3-0.885c0.6-0.375,1.484-0.63,2.399-0.63c2.235,0,2.775,1.515,2.775,2.97V126.827z M388.997,124.862
		c-1.439-0.03-3.075,0.225-3.075,1.635c0,0.87,0.57,1.26,1.23,1.26c0.96,0,1.575-0.6,1.785-1.215c0.045-0.135,0.06-0.285,0.06-0.42
		V124.862z"/>
	<path d="M393.932,119.567v1.74h1.891v1.005h-1.891v3.915c0,0.9,0.256,1.41,0.99,1.41c0.36,0,0.57-0.03,0.766-0.09l0.06,1.005
		c-0.255,0.09-0.66,0.18-1.17,0.18c-0.615,0-1.11-0.21-1.425-0.555c-0.36-0.405-0.511-1.05-0.511-1.905v-3.96h-1.125v-1.005h1.125
		v-1.335L393.932,119.567z"/>
</g>
<g class="hide-when-cropped">
	<path d="M340.751,80.16h-3.915v3.645h4.38V84.9h-5.7V74.79h5.475v1.095h-4.154v3.195h3.915V80.16z"/>
	<path d="M342.865,79.605c0-0.765-0.015-1.365-0.06-1.965h1.17l0.075,1.185h0.029c0.36-0.675,1.2-1.35,2.4-1.35
		c1.005,0,2.565,0.6,2.565,3.09V84.9h-1.32v-4.185c0-1.17-0.435-2.16-1.68-2.16c-0.855,0-1.53,0.615-1.771,1.35
		c-0.06,0.165-0.09,0.405-0.09,0.615v4.38h-1.32V79.605z"/>
	<path d="M357.461,74.25v8.775c0,0.645,0.015,1.38,0.06,1.875h-1.185l-0.061-1.26h-0.029c-0.405,0.81-1.275,1.425-2.46,1.425
		c-1.756,0-3.12-1.485-3.12-3.69c-0.016-2.43,1.5-3.9,3.255-3.9c1.125,0,1.875,0.525,2.189,1.095h0.03v-4.32H357.461z
		 M356.141,80.595c0-0.18-0.015-0.39-0.06-0.57c-0.195-0.825-0.915-1.515-1.905-1.515c-1.365,0-2.175,1.2-2.175,2.79
		c0,1.485,0.734,2.7,2.145,2.7c0.885,0,1.695-0.6,1.936-1.575c0.045-0.18,0.06-0.36,0.06-0.57V80.595z"/>
	<path d="M362.605,85.065c-1.95,0-3.479-1.44-3.479-3.735c0-2.43,1.604-3.855,3.6-3.855c2.085,0,3.495,1.515,3.495,3.72
		c0,2.7-1.875,3.87-3.6,3.87H362.605z M362.65,84.075c1.261,0,2.205-1.185,2.205-2.835c0-1.23-0.615-2.775-2.175-2.775
		c-1.545,0-2.22,1.44-2.22,2.82c0,1.59,0.899,2.79,2.175,2.79H362.65z"/>
	<path d="M367.705,83.565c0.405,0.24,1.095,0.51,1.755,0.51c0.945,0,1.396-0.465,1.396-1.08c0-0.63-0.375-0.975-1.335-1.335
		c-1.32-0.48-1.936-1.185-1.936-2.055c0-1.17,0.96-2.13,2.505-2.13c0.735,0,1.38,0.195,1.771,0.45l-0.315,0.945
		c-0.285-0.165-0.81-0.42-1.484-0.42c-0.78,0-1.2,0.45-1.2,0.99c0,0.615,0.42,0.885,1.364,1.245c1.245,0.465,1.905,1.095,1.905,2.19
		c0,1.29-1.005,2.19-2.7,2.19c-0.795,0-1.529-0.21-2.04-0.51L367.705,83.565z"/>
	<path d="M373.825,80.01c0-0.93-0.015-1.68-0.06-2.37h1.185l0.075,1.245h0.03c0.524-0.9,1.395-1.41,2.564-1.41
		c1.771,0,3.091,1.485,3.091,3.69c0,2.61-1.605,3.9-3.301,3.9c-0.975,0-1.8-0.42-2.234-1.14h-0.03v3.945h-1.32V80.01z
		 M375.146,81.945c0,0.18,0.015,0.375,0.06,0.54c0.226,0.915,1.035,1.545,1.966,1.545c1.395,0,2.205-1.14,2.205-2.805
		c0-1.455-0.75-2.7-2.146-2.7c-0.9,0-1.755,0.63-2.01,1.62c-0.03,0.18-0.075,0.375-0.075,0.54V81.945z"/>
	<path d="M383.125,81.495c0.03,1.785,1.155,2.521,2.476,2.521c0.944,0,1.529-0.165,2.01-0.36l0.24,0.93
		c-0.465,0.21-1.275,0.465-2.431,0.465c-2.22,0-3.569-1.485-3.569-3.66c0-2.205,1.305-3.93,3.42-3.93c2.37,0,2.984,2.085,2.984,3.42
		c0,0.27-0.015,0.48-0.045,0.63L383.125,81.495z M386.98,80.55c0.015-0.825-0.345-2.145-1.815-2.145c-1.35,0-1.92,1.23-2.024,2.145
		H386.98z"/>
	<path d="M389.905,79.905c0-0.855-0.016-1.59-0.061-2.265H391l0.06,1.425h0.045c0.33-0.975,1.141-1.59,2.025-1.59
		c0.135,0,0.24,0.015,0.36,0.045v1.23c-0.15-0.015-0.285-0.03-0.465-0.03c-0.931,0-1.591,0.705-1.771,1.68
		c-0.03,0.195-0.045,0.405-0.045,0.63v3.87h-1.32L389.905,79.905z"/>
	<path d="M394.854,79.605c0-0.765-0.029-1.365-0.06-1.965h1.155l0.06,1.17h0.045c0.405-0.69,1.08-1.335,2.295-1.335
		c0.976,0,1.726,0.6,2.04,1.455h0.03c0.225-0.42,0.524-0.72,0.825-0.945c0.435-0.33,0.899-0.51,1.59-0.51
		c0.975,0,2.399,0.63,2.399,3.15V84.9h-1.289v-4.11c0-1.41-0.525-2.235-1.575-2.235c-0.766,0-1.335,0.555-1.575,1.185
		c-0.061,0.195-0.105,0.435-0.105,0.66v4.5h-1.29v-4.35c0-1.17-0.51-1.995-1.515-1.995c-0.81,0-1.425,0.66-1.635,1.32
		c-0.075,0.195-0.105,0.42-0.105,0.645v4.38h-1.29V79.605z"/>
</g>
<g class="hide-when-cropped">
	<path d="M341.751,102.16h-3.915v3.646h4.38v1.095h-5.7V96.79h5.475v1.096h-4.154v3.194h3.915V102.16z"/>
	<path d="M343.865,101.605c0-0.765-0.029-1.365-0.06-1.965h1.155l0.06,1.17h0.045c0.405-0.69,1.08-1.335,2.295-1.335
		c0.976,0,1.726,0.6,2.04,1.455h0.03c0.225-0.42,0.524-0.721,0.825-0.945c0.435-0.33,0.899-0.51,1.59-0.51
		c0.975,0,2.399,0.63,2.399,3.149v4.275h-1.29v-4.11c0-1.41-0.524-2.234-1.574-2.234c-0.766,0-1.335,0.555-1.575,1.185
		c-0.061,0.195-0.105,0.436-0.105,0.66v4.5h-1.29v-4.35c0-1.171-0.51-1.995-1.515-1.995c-0.81,0-1.425,0.66-1.635,1.319
		c-0.075,0.195-0.105,0.42-0.105,0.646v4.38h-1.29V101.605z"/>
	<path d="M356.375,96.25h1.32v4.545h0.03c0.465-0.81,1.305-1.319,2.475-1.319c1.8,0,3.061,1.5,3.061,3.689
		c0,2.61-1.65,3.9-3.271,3.9c-1.05,0-1.875-0.405-2.43-1.365h-0.03l-0.075,1.2h-1.14c0.045-0.495,0.06-1.23,0.06-1.875V96.25z
		 M357.695,103.99c0,0.165,0.015,0.33,0.045,0.48c0.255,0.915,1.035,1.545,1.98,1.545c1.395,0,2.205-1.125,2.205-2.79
		c0-1.471-0.75-2.715-2.16-2.715c-0.9,0-1.74,0.63-1.995,1.619c-0.045,0.165-0.075,0.346-0.075,0.556V103.99z"/>
	<path d="M364.926,101.905c0-0.854-0.016-1.59-0.061-2.265h1.155l0.06,1.425h0.045c0.33-0.976,1.141-1.59,2.025-1.59
		c0.135,0,0.24,0.015,0.36,0.045v1.229c-0.15-0.015-0.285-0.029-0.465-0.029c-0.931,0-1.591,0.705-1.771,1.68
		c-0.03,0.195-0.045,0.405-0.045,0.63v3.87h-1.32L364.926,101.905z"/>
	<path d="M370.655,99.64l1.575,4.29c0.18,0.479,0.359,1.05,0.479,1.484h0.03c0.135-0.435,0.285-0.989,0.465-1.515l1.44-4.26h1.395
		l-1.979,5.175c-0.945,2.49-1.591,3.765-2.49,4.56c-0.66,0.556-1.29,0.78-1.62,0.841l-0.33-1.11c0.33-0.09,0.765-0.3,1.155-0.646
		c0.359-0.284,0.795-0.795,1.109-1.47c0.061-0.135,0.105-0.225,0.105-0.314c0-0.075-0.03-0.181-0.105-0.33l-2.67-6.705H370.655z"/>
	<path d="M380.045,107.065c-1.95,0-3.479-1.44-3.479-3.735c0-2.43,1.604-3.854,3.6-3.854c2.085,0,3.495,1.515,3.495,3.72
		c0,2.7-1.875,3.87-3.6,3.87H380.045z M380.09,106.075c1.261,0,2.205-1.185,2.205-2.835c0-1.229-0.615-2.775-2.175-2.775
		c-1.545,0-2.22,1.44-2.22,2.82c0,1.59,0.899,2.79,2.175,2.79H380.09z"/>
</g>
<line class="hide-when-cropped"
      fill="none" stroke="#000000" x1="278.391" y1="232.233" x2="331.391" y2="227.567"/>
<line class="hide-when-cropped"
      fill="none" stroke="#000000" x1="220.891" y1="215.4" x2="331.391" y2="205.9"/>
<line class="hide-when-cropped"
      fill="none" stroke="#000000" x1="156.622" y1="198.5" x2="331.391" y2="184.566"/>
<line class="hide-when-cropped"
      fill="none" stroke="#FF7F00" stroke-width="3.5613" x1="331.391" y1="177.9" x2="331.391" y2="242.9"/>
<line class="hide-when-cropped"
      fill="none" stroke="#000000" x1="194.966" y1="160.325" x2="331.891" y2="120.9"/>
<line class="hide-when-cropped"
      fill="none" stroke="#000000" x1="145.974" y1="158.816" x2="331.891" y2="101.9"/>
<line class="hide-when-cropped"
      fill="none" stroke="#000000" x1="182.505" y1="130.813" x2="331.891" y2="81.9"/>
<line class="hide-when-cropped"
      fill="none" stroke="#00A33D" stroke-width="3.5613" x1="331.891" y1="69.733" x2="331.891" y2="134.733"/>
</g>
</svg>
