<svg xmlns="http://www.w3.org/2000/svg" xml:lang="en" 
     width="100px" height="100px" viewBox="0 0 20 20" >  <!--1-->
    <title>Card Suits</title>
    <style type="text/css">                              <!--2-->
        svg > svg:not(:target) {
            display: none;
        }
    </style>
    
    <svg id="diamond">                                   <!--3-->
        <title>Diamond</title>
        <path fill="red"
              d="M3,10L10,0 17,10 10,20Z 
                 M9,11L10,18V10H15L11,9 10,2V10H5Z" />
    </svg>
    
    <svg id="club">                                      <!--4-->
        <title>Club</title>
        <path fill="black"
              d="M9,15.5A5,5 0 1 1 5.5, 7.5 
                 A5,5 0 1 1 14.5, 7.5A5,5 0 1 1 11, 15.5
                 Q11,20 13,20H7Q9,20 9,15.5Z" />
    </svg>
    
    <svg id="spade">                                     <!--5-->
        <title>Spade</title>
        <path fill="black"
              d="M9,15C9,20 0,21 0,16S6,9 10,0C14,9 20,11 20,16
                 S11,20 11,15Q11,20 13,20H7Q9,20 9,15Z" />
    </svg>
    
    <svg id="heart">
        <title>Heart</title>
        <path fill="red"
              d="M10,6 Q10,0 15,0T20,6Q20,10 15,14 
                 T10,20Q10,18 5,14T0,6Q0,0 5,0T10,6Z" />
    </svg>
</svg>